<?xml version="1.0" encoding="UTF-8" standalone="no"?>
<!DOCTYPE svg PUBLIC "-//W3C//DTD SVG 1.1//EN"
 "http://www.w3.org/Graphics/SVG/1.1/DTD/svg11.dtd">
<!-- Generated by graphviz version 2.40.1 (20161225.0304)
 -->
<!-- Title: demotopo Pages: 1 -->
<svg width="2276pt" height="1470pt"
 viewBox="0.00 0.00 2276.00 1470.40" xmlns="http://www.w3.org/2000/svg" xmlns:xlink="http://www.w3.org/1999/xlink">
<g id="graph0" class="graph" transform="scale(1 1) rotate(0) translate(4 1466.3991)">
<title>demotopo</title>
<polygon fill="#ffffff" stroke="transparent" points="-4,4 -4,-1466.3991 2272,-1466.3991 2272,4 -4,4"/>
<text text-anchor="middle" x="1134" y="-22.8" font-family="Arial" font-size="64.00" fill="#000000">IoT Dashboard</text>
<!-- rpit5 -->
<g id="rpit5" class="node">
<title>rpit5</title>
<polygon fill="#ffffff" stroke="#ffffff" points="452,-786.3991 0,-786.3991 0,-484.3991 452,-484.3991 452,-786.3991"/>
<image xlink:href="img/rpibp.svg" width="452px" height="302px" preserveAspectRatio="xMinYMin meet" x="0" y="-786.399"/>
<polygon fill="#add8e6" stroke="transparent" points="89,-735.3991 89,-785.3991 260,-785.3991 260,-735.3991 89,-735.3991"/>
<polygon fill="none" stroke="#ffffff" points="89,-735.3991 89,-785.3991 260,-785.3991 260,-735.3991 89,-735.3991"/>
<text text-anchor="start" x="135" y="-752.5991" font-family="Arial" font-weight="bold" font-size="36.00" fill="#ff0000">rpit5</text>
<polygon fill="#ffffff" stroke="transparent" points="260,-735.3991 260,-785.3991 364,-785.3991 364,-735.3991 260,-735.3991"/>
<polygon fill="none" stroke="#ffffff" points="260,-735.3991 260,-785.3991 364,-785.3991 364,-735.3991 260,-735.3991"/>
<text text-anchor="start" x="306.5" y="-751.5991" font-family="Arial" font-size="36.00" fill="#ff0000"> </text>
<polygon fill="#add8e6" stroke="transparent" points="89,-685.3991 89,-735.3991 364,-735.3991 364,-685.3991 89,-685.3991"/>
<polygon fill="none" stroke="#ffffff" points="89,-685.3991 89,-735.3991 364,-735.3991 364,-685.3991 89,-685.3991"/>
<text text-anchor="start" x="94" y="-701.5991" font-family="Arial" font-size="36.00" fill="#ff0000">IP: 192.168.8.22</text>
</g>
<!-- network -->
<g id="node10" class="node">
<title>network</title>
<polygon fill="#ff2200" stroke="#ff2200" points="1053,-448.3991 999,-448.3991 999,-412.3991 1053,-412.3991 1053,-448.3991"/>
</g>
<!-- rpit5&#45;&#45;network -->
<g id="edge11" class="edge">
<title>rpit5&#45;&#45;network</title>
<path fill="none" stroke="#ff2200" stroke-width="6" d="M452.0237,-489.4766C456.6799,-487.685 461.3411,-485.9889 466,-484.3991 566.6429,-450.0544 901.2329,-435.0671 998.971,-431.3552"/>
</g>
<!-- rpit3 -->
<g id="rpit3" class="node">
<title>rpit3</title>
<polygon fill="#ffffff" stroke="#ffffff" points="490,-1462.3991 38,-1462.3991 38,-1160.3991 490,-1160.3991 490,-1462.3991"/>
<image xlink:href="img/rpibp.svg" width="452px" height="302px" preserveAspectRatio="xMinYMin meet" x="38" y="-1462.4"/>
<polygon fill="#add8e6" stroke="transparent" points="127,-1411.3991 127,-1461.3991 298,-1461.3991 298,-1411.3991 127,-1411.3991"/>
<polygon fill="none" stroke="#ffffff" points="127,-1411.3991 127,-1461.3991 298,-1461.3991 298,-1411.3991 127,-1411.3991"/>
<text text-anchor="start" x="173" y="-1428.5991" font-family="Arial" font-weight="bold" font-size="36.00" fill="#ff0000">rpit3</text>
<polygon fill="#ffffff" stroke="transparent" points="298,-1411.3991 298,-1461.3991 402,-1461.3991 402,-1411.3991 298,-1411.3991"/>
<polygon fill="none" stroke="#ffffff" points="298,-1411.3991 298,-1461.3991 402,-1461.3991 402,-1411.3991 298,-1411.3991"/>
<text text-anchor="start" x="344.5" y="-1427.5991" font-family="Arial" font-size="36.00" fill="#ff0000"> </text>
<polygon fill="#add8e6" stroke="transparent" points="127,-1361.3991 127,-1411.3991 402,-1411.3991 402,-1361.3991 127,-1361.3991"/>
<polygon fill="none" stroke="#ffffff" points="127,-1361.3991 127,-1411.3991 402,-1411.3991 402,-1361.3991 127,-1361.3991"/>
<text text-anchor="start" x="132" y="-1377.5991" font-family="Arial" font-size="36.00" fill="#ff0000">IP: 192.168.8.23</text>
</g>
<!-- rpit3&#45;&#45;network -->
<g id="edge3" class="edge">
<title>rpit3&#45;&#45;network</title>
<path fill="none" stroke="#ff2200" stroke-width="6" d="M319.8641,-1160.3134C402.225,-945.8949 559.0957,-569.7862 676,-484.3991 727.5733,-446.7298 925.9403,-434.6367 998.8833,-431.4163"/>
</g>
<!-- rpit4 -->
<g id="rpit4" class="node">
<title>rpit4</title>
<polygon fill="#ffffff" stroke="#ffffff" points="960,-1462.3991 508,-1462.3991 508,-1160.3991 960,-1160.3991 960,-1462.3991"/>
<image xlink:href="img/rpibp.svg" width="452px" height="302px" preserveAspectRatio="xMinYMin meet" x="508" y="-1462.4"/>
<polygon fill="#add8e6" stroke="transparent" points="597,-1411.3991 597,-1461.3991 768,-1461.3991 768,-1411.3991 597,-1411.3991"/>
<polygon fill="none" stroke="#ffffff" points="597,-1411.3991 597,-1461.3991 768,-1461.3991 768,-1411.3991 597,-1411.3991"/>
<text text-anchor="start" x="643" y="-1428.5991" font-family="Arial" font-weight="bold" font-size="36.00" fill="#ff0000">rpit4</text>
<polygon fill="#ffffff" stroke="transparent" points="768,-1411.3991 768,-1461.3991 872,-1461.3991 872,-1411.3991 768,-1411.3991"/>
<polygon fill="none" stroke="#ffffff" points="768,-1411.3991 768,-1461.3991 872,-1461.3991 872,-1411.3991 768,-1411.3991"/>
<text text-anchor="start" x="814.5" y="-1427.5991" font-family="Arial" font-size="36.00" fill="#ff0000"> </text>
<polygon fill="#add8e6" stroke="transparent" points="597,-1361.3991 597,-1411.3991 872,-1411.3991 872,-1361.3991 597,-1361.3991"/>
<polygon fill="none" stroke="#ffffff" points="597,-1361.3991 597,-1411.3991 872,-1411.3991 872,-1361.3991 597,-1361.3991"/>
<text text-anchor="start" x="602" y="-1377.5991" font-family="Arial" font-size="36.00" fill="#ff0000">IP: 192.168.8.24</text>
</g>
<!-- rpit4&#45;&#45;network -->
<g id="edge4" class="edge">
<title>rpit4&#45;&#45;network</title>
<path fill="none" stroke="#ff2200" stroke-width="6" d="M697.5564,-1160.3614C663.0587,-977.0324 637.946,-669.5057 801,-484.3991 826.9558,-454.9328 944.487,-438.9791 998.5892,-433.0842"/>
</g>
<!-- rpip5 -->
<g id="rpip5" class="node">
<title>rpip5</title>
<polygon fill="#ffffff" stroke="#ffffff" points="1430,-1462.3991 978,-1462.3991 978,-1160.3991 1430,-1160.3991 1430,-1462.3991"/>
<image xlink:href="img/rpibp.svg" width="452px" height="302px" preserveAspectRatio="xMinYMin meet" x="978" y="-1462.4"/>
<polygon fill="#add8e6" stroke="transparent" points="1067,-1411.3991 1067,-1461.3991 1243,-1461.3991 1243,-1411.3991 1067,-1411.3991"/>
<polygon fill="none" stroke="#ffffff" points="1067,-1411.3991 1067,-1461.3991 1243,-1461.3991 1243,-1411.3991 1067,-1411.3991"/>
<text text-anchor="start" x="1110.5" y="-1428.5991" font-family="Arial" font-weight="bold" font-size="36.00" fill="#ff0000">rpip5</text>
<polygon fill="#ffffff" stroke="transparent" points="1243,-1411.3991 1243,-1461.3991 1342,-1461.3991 1342,-1411.3991 1243,-1411.3991"/>
<polygon fill="none" stroke="#ffffff" points="1243,-1411.3991 1243,-1461.3991 1342,-1461.3991 1342,-1411.3991 1243,-1411.3991"/>
<text text-anchor="start" x="1287" y="-1427.5991" font-family="Arial" font-size="36.00" fill="#ff0000"> </text>
<polygon fill="#add8e6" stroke="transparent" points="1067,-1361.3991 1067,-1411.3991 1342,-1411.3991 1342,-1361.3991 1067,-1361.3991"/>
<polygon fill="none" stroke="#ffffff" points="1067,-1361.3991 1067,-1411.3991 1342,-1411.3991 1342,-1361.3991 1067,-1361.3991"/>
<text text-anchor="start" x="1072" y="-1377.5991" font-family="Arial" font-size="36.00" fill="#ff0000">IP: 192.168.8.25</text>
</g>
<!-- rpip5&#45;&#45;network -->
<g id="edge5" class="edge">
<title>rpip5&#45;&#45;network</title>
<path fill="none" stroke="#ff2200" stroke-width="6" d="M977.7706,-1164.0624C974.8452,-1162.8059 971.921,-1161.5839 969,-1160.3991 894.2057,-1130.0613 842.1036,-1186.873 791,-1124.3991 748.5084,-1072.4533 773.0979,-887.0784 791,-822.3991 835.3433,-662.1887 964.4914,-501.6705 1009.9455,-448.6431"/>
</g>
<!-- rpip6 -->
<g id="rpip6" class="node">
<title>rpip6</title>
<polygon fill="#ffffff" stroke="#ffffff" points="1252,-1124.3991 800,-1124.3991 800,-822.3991 1252,-822.3991 1252,-1124.3991"/>
<image xlink:href="img/rpibp.svg" width="452px" height="302px" preserveAspectRatio="xMinYMin meet" x="800" y="-1124.4"/>
<polygon fill="#add8e6" stroke="transparent" points="889,-1073.3991 889,-1123.3991 1065,-1123.3991 1065,-1073.3991 889,-1073.3991"/>
<polygon fill="none" stroke="#ffffff" points="889,-1073.3991 889,-1123.3991 1065,-1123.3991 1065,-1073.3991 889,-1073.3991"/>
<text text-anchor="start" x="932.5" y="-1090.5991" font-family="Arial" font-weight="bold" font-size="36.00" fill="#ff0000">rpip6</text>
<polygon fill="#ffffff" stroke="transparent" points="1065,-1073.3991 1065,-1123.3991 1164,-1123.3991 1164,-1073.3991 1065,-1073.3991"/>
<polygon fill="none" stroke="#ffffff" points="1065,-1073.3991 1065,-1123.3991 1164,-1123.3991 1164,-1073.3991 1065,-1073.3991"/>
<text text-anchor="start" x="1109" y="-1089.5991" font-family="Arial" font-size="36.00" fill="#ff0000"> </text>
<polygon fill="#add8e6" stroke="transparent" points="889,-1023.3991 889,-1073.3991 1164,-1073.3991 1164,-1023.3991 889,-1023.3991"/>
<polygon fill="none" stroke="#ffffff" points="889,-1023.3991 889,-1073.3991 1164,-1073.3991 1164,-1023.3991 889,-1023.3991"/>
<text text-anchor="start" x="894" y="-1039.5991" font-family="Arial" font-size="36.00" fill="#ff0000">IP: 192.168.8.26</text>
</g>
<!-- rpip6&#45;&#45;network -->
<g id="edge6" class="edge">
<title>rpip6&#45;&#45;network</title>
<path fill="none" stroke="#ff2200" stroke-width="6" d="M1026,-822.1433C1026,-688.4614 1026,-506.0394 1026,-448.5286"/>
</g>
<!-- rpip7 -->
<g id="rpip7" class="node">
<title>rpip7</title>
<polygon fill="#ffffff" stroke="#ffffff" points="1722,-1124.3991 1270,-1124.3991 1270,-822.3991 1722,-822.3991 1722,-1124.3991"/>
<image xlink:href="img/rpibp.svg" width="452px" height="302px" preserveAspectRatio="xMinYMin meet" x="1270" y="-1124.4"/>
<polygon fill="#add8e6" stroke="transparent" points="1359,-1073.3991 1359,-1123.3991 1535,-1123.3991 1535,-1073.3991 1359,-1073.3991"/>
<polygon fill="none" stroke="#ffffff" points="1359,-1073.3991 1359,-1123.3991 1535,-1123.3991 1535,-1073.3991 1359,-1073.3991"/>
<text text-anchor="start" x="1402.5" y="-1090.5991" font-family="Arial" font-weight="bold" font-size="36.00" fill="#ff0000">rpip7</text>
<polygon fill="#ffffff" stroke="transparent" points="1535,-1073.3991 1535,-1123.3991 1634,-1123.3991 1634,-1073.3991 1535,-1073.3991"/>
<polygon fill="none" stroke="#ffffff" points="1535,-1073.3991 1535,-1123.3991 1634,-1123.3991 1634,-1073.3991 1535,-1073.3991"/>
<text text-anchor="start" x="1579" y="-1089.5991" font-family="Arial" font-size="36.00" fill="#ff0000"> </text>
<polygon fill="#add8e6" stroke="transparent" points="1359,-1023.3991 1359,-1073.3991 1634,-1073.3991 1634,-1023.3991 1359,-1023.3991"/>
<polygon fill="none" stroke="#ffffff" points="1359,-1023.3991 1359,-1073.3991 1634,-1073.3991 1634,-1023.3991 1359,-1023.3991"/>
<text text-anchor="start" x="1364" y="-1039.5991" font-family="Arial" font-size="36.00" fill="#ff0000">IP: 192.168.8.27</text>
</g>
<!-- rpip7&#45;&#45;network -->
<g id="edge7" class="edge">
<title>rpip7&#45;&#45;network</title>
<path fill="none" stroke="#ff2200" stroke-width="6" d="M1337.3342,-822.2579C1325.8646,-810.3054 1314.6371,-798.2664 1304,-786.3991 1193.8235,-663.4805 1076.8741,-502.0063 1038.7827,-448.4903"/>
</g>
<!-- rpip8 -->
<g id="rpip8" class="node">
<title>rpip8</title>
<polygon fill="#ffffff" stroke="#ffffff" points="2192,-1124.3991 1740,-1124.3991 1740,-822.3991 2192,-822.3991 2192,-1124.3991"/>
<image xlink:href="img/rpibp.svg" width="452px" height="302px" preserveAspectRatio="xMinYMin meet" x="1740" y="-1124.4"/>
<polygon fill="#add8e6" stroke="transparent" points="1829,-1073.3991 1829,-1123.3991 2005,-1123.3991 2005,-1073.3991 1829,-1073.3991"/>
<polygon fill="none" stroke="#ffffff" points="1829,-1073.3991 1829,-1123.3991 2005,-1123.3991 2005,-1073.3991 1829,-1073.3991"/>
<text text-anchor="start" x="1872.5" y="-1090.5991" font-family="Arial" font-weight="bold" font-size="36.00" fill="#ff0000">rpip8</text>
<polygon fill="#ffffff" stroke="transparent" points="2005,-1073.3991 2005,-1123.3991 2104,-1123.3991 2104,-1073.3991 2005,-1073.3991"/>
<polygon fill="none" stroke="#ffffff" points="2005,-1073.3991 2005,-1123.3991 2104,-1123.3991 2104,-1073.3991 2005,-1073.3991"/>
<text text-anchor="start" x="2049" y="-1089.5991" font-family="Arial" font-size="36.00" fill="#ff0000"> </text>
<polygon fill="#add8e6" stroke="transparent" points="1829,-1023.3991 1829,-1073.3991 2104,-1073.3991 2104,-1023.3991 1829,-1023.3991"/>
<polygon fill="none" stroke="#ffffff" points="1829,-1023.3991 1829,-1073.3991 2104,-1073.3991 2104,-1023.3991 1829,-1023.3991"/>
<text text-anchor="start" x="1834" y="-1039.5991" font-family="Arial" font-size="36.00" fill="#ff0000">IP: 192.168.8.28</text>
</g>
<!-- rpip8&#45;&#45;network -->
<g id="edge8" class="edge">
<title>rpip8&#45;&#45;network</title>
<path fill="none" stroke="#ff2200" stroke-width="6" d="M1739.9413,-825.6064C1736.962,-824.4939 1733.9809,-823.4238 1731,-822.3991 1647.8557,-793.816 1408.7273,-837.2436 1337,-786.3991 1216.6077,-701.0581 1309.7147,-581.9677 1199,-484.3991 1157.1001,-447.4743 1090.1343,-435.7934 1053.0052,-432.1018"/>
</g>
<!-- rpip9 -->
<g id="rpip9" class="node">
<title>rpip9</title>
<polygon fill="#ffffff" stroke="#ffffff" points="1798,-786.3991 1346,-786.3991 1346,-484.3991 1798,-484.3991 1798,-786.3991"/>
<image xlink:href="img/rpibp.svg" width="452px" height="302px" preserveAspectRatio="xMinYMin meet" x="1346" y="-786.399"/>
<polygon fill="#add8e6" stroke="transparent" points="1435,-735.3991 1435,-785.3991 1611,-785.3991 1611,-735.3991 1435,-735.3991"/>
<polygon fill="none" stroke="#ffffff" points="1435,-735.3991 1435,-785.3991 1611,-785.3991 1611,-735.3991 1435,-735.3991"/>
<text text-anchor="start" x="1478.5" y="-752.5991" font-family="Arial" font-weight="bold" font-size="36.00" fill="#ff0000">rpip9</text>
<polygon fill="#ffffff" stroke="transparent" points="1611,-735.3991 1611,-785.3991 1710,-785.3991 1710,-735.3991 1611,-735.3991"/>
<polygon fill="none" stroke="#ffffff" points="1611,-735.3991 1611,-785.3991 1710,-785.3991 1710,-735.3991 1611,-735.3991"/>
<text text-anchor="start" x="1655" y="-751.5991" font-family="Arial" font-size="36.00" fill="#ff0000"> </text>
<polygon fill="#add8e6" stroke="transparent" points="1435,-685.3991 1435,-735.3991 1710,-735.3991 1710,-685.3991 1435,-685.3991"/>
<polygon fill="none" stroke="#ffffff" points="1435,-685.3991 1435,-735.3991 1710,-735.3991 1710,-685.3991 1435,-685.3991"/>
<text text-anchor="start" x="1440" y="-701.5991" font-family="Arial" font-size="36.00" fill="#ff0000">IP: 192.168.8.29</text>
</g>
<!-- rpip9&#45;&#45;network -->
<g id="edge9" class="edge">
<title>rpip9&#45;&#45;network</title>
<path fill="none" stroke="#ff2200" stroke-width="6" d="M1345.7934,-489.9799C1341.1933,-488.0342 1336.5929,-486.1706 1332,-484.3991 1233.8534,-446.5425 1107.6811,-435.0264 1053.1247,-431.6877"/>
</g>
<!-- rpip10 -->
<g id="rpip10" class="node">
<title>rpip10</title>
<polygon fill="#ffffff" stroke="#ffffff" points="2268,-786.3991 1816,-786.3991 1816,-484.3991 2268,-484.3991 2268,-786.3991"/>
<image xlink:href="img/rpibp.svg" width="452px" height="302px" preserveAspectRatio="xMinYMin meet" x="1816" y="-786.399"/>
<polygon fill="#add8e6" stroke="transparent" points="1905,-735.3991 1905,-785.3991 2091,-785.3991 2091,-735.3991 1905,-735.3991"/>
<polygon fill="none" stroke="#ffffff" points="1905,-735.3991 1905,-785.3991 2091,-785.3991 2091,-735.3991 1905,-735.3991"/>
<text text-anchor="start" x="1943.5" y="-752.5991" font-family="Arial" font-weight="bold" font-size="36.00" fill="#ff0000">rpip10</text>
<polygon fill="#ffffff" stroke="transparent" points="2091,-735.3991 2091,-785.3991 2180,-785.3991 2180,-735.3991 2091,-735.3991"/>
<polygon fill="none" stroke="#ffffff" points="2091,-735.3991 2091,-785.3991 2180,-785.3991 2180,-735.3991 2091,-735.3991"/>
<text text-anchor="start" x="2130" y="-751.5991" font-family="Arial" font-size="36.00" fill="#ff0000"> </text>
<polygon fill="#add8e6" stroke="transparent" points="1905,-685.3991 1905,-735.3991 2180,-735.3991 2180,-685.3991 1905,-685.3991"/>
<polygon fill="none" stroke="#ffffff" points="1905,-685.3991 1905,-735.3991 2180,-735.3991 2180,-685.3991 1905,-685.3991"/>
<text text-anchor="start" x="1910" y="-701.5991" font-family="Arial" font-size="36.00" fill="#ff0000">IP: 192.168.8.30</text>
</g>
<!-- rpip10&#45;&#45;network -->
<g id="edge10" class="edge">
<title>rpip10&#45;&#45;network</title>
<path fill="none" stroke="#ff2200" stroke-width="6" d="M1815.973,-487.5124C1812.9837,-486.4296 1809.9921,-485.3909 1807,-484.3991 1734.1894,-460.2641 1182.4602,-436.703 1053.0877,-431.4719"/>
</g>
<!-- broker -->
<g id="broker" class="node">
<title>broker</title>
<ellipse fill="#add8e6" stroke="#add8e6" cx="1026" cy="-227.1995" rx="125.7302" ry="125.7302"/>
<image xlink:href="img/servers.png" width="128px" height="128px" preserveAspectRatio="xMinYMin meet" x="962" y="-291.2"/>
<polygon fill="#add8e6" stroke="transparent" points="945,-172.7021 945,-222.7021 1107,-222.7021 1107,-172.7021 945,-172.7021"/>
<polygon fill="none" stroke="#add8e6" points="945,-172.7021 945,-222.7021 1107,-222.7021 1107,-172.7021 945,-172.7021"/>
<text text-anchor="start" x="967.5" y="-189.9021" font-family="Arial" font-weight="bold" font-size="36.00" fill="#000000">Broker</text>
<polygon fill="#add8e6" stroke="transparent" points="945,-122.7021 945,-172.7021 1076,-172.7021 1076,-122.7021 945,-122.7021"/>
<polygon fill="none" stroke="#add8e6" points="945,-122.7021 945,-172.7021 1076,-172.7021 1076,-122.7021 945,-122.7021"/>
<text text-anchor="start" x="950" y="-138.9021" font-family="Arial" font-size="36.00" fill="#000000">Clients:</text>
<polygon fill="#ffffff" stroke="transparent" points="1076,-122.7021 1076,-172.7021 1107,-172.7021 1107,-122.7021 1076,-122.7021"/>
<polygon fill="none" stroke="#add8e6" points="1076,-122.7021 1076,-172.7021 1107,-172.7021 1107,-122.7021 1076,-122.7021"/>
<text text-anchor="start" x="1081" y="-139.9021" font-family="Arial" font-weight="bold" font-size="36.00" fill="#000000">0</text>
</g>
<!-- network&#45;&#45;broker -->
<g id="edge2" class="edge">
<title>network&#45;&#45;broker</title>
<path fill="none" stroke="#ff2200" stroke-width="6" d="M1026,-412.3665C1026,-397.9912 1026,-376.4547 1026,-353.098"/>
</g>
<!-- cloud -->
<g id="cloud" class="node">
<title>cloud</title>
<ellipse fill="#ffffff" stroke="#ffffff" cx="1391" cy="-227.1995" rx="149.3993" ry="149.3993"/>
<image xlink:href="img/cloud.png" width="64px" height="60px" preserveAspectRatio="xMinYMin meet" x="1359" y="-257.2"/>
<text text-anchor="middle" x="1391" y="-99.1411" font-family="Arial" font-size="36.00" fill="#000000">The Internet</text>
</g>
<!-- broker&#45;&#45;cloud -->
<g id="edge1" class="edge">
<title>broker&#45;&#45;cloud</title>
<path fill="none" stroke="#0022ff" stroke-width="6" d="M1152.1816,-227.1995C1182.0339,-227.1995 1211.8862,-227.1995 1241.7385,-227.1995"/>
</g>
</g>
</svg>
