<?xml version="1.0" encoding="UTF-8" standalone="no"?>
<!DOCTYPE svg PUBLIC "-//W3C//DTD SVG 1.1//EN"
 "http://www.w3.org/Graphics/SVG/1.1/DTD/svg11.dtd">
<!-- Generated by graphviz version 2.40.1 (20161225.0304)
 -->
<!-- Title: demotopo Pages: 1 -->
<svg width="1924pt" height="1711pt"
 viewBox="0.00 0.00 1924.00 1711.00" xmlns="http://www.w3.org/2000/svg" xmlns:xlink="http://www.w3.org/1999/xlink">
<g id="graph0" class="graph" transform="scale(1 1) rotate(0) translate(4 1707)">
<title>demotopo</title>
<polygon fill="#ffffff" stroke="transparent" points="-4,4 -4,-1707 1920,-1707 1920,4 -4,4"/>
<text text-anchor="middle" x="958" y="-22.8" font-family="Arial" font-size="64.00" fill="#000000">IoT Dashboard</text>
<!-- rpit5 -->
<g id="node1" class="node">
<title>rpit5</title>
<polygon fill="#ffffff" stroke="#ffffff" points="1916,-1158 1464,-1158 1464,-856 1916,-856 1916,-1158"/>
<image xlink:href="img/rpibp.svg" width="452px" height="302px" preserveAspectRatio="xMinYMin meet" x="1464" y="-1158"/>
<polygon fill="#add8e6" stroke="transparent" points="1541,-1107 1541,-1157 1724,-1157 1724,-1107 1541,-1107"/>
<polygon fill="none" stroke="#ffffff" points="1541,-1107 1541,-1157 1724,-1157 1724,-1107 1541,-1107"/>
<text text-anchor="start" x="1593" y="-1124.2" font-family="Arial" font-weight="bold" font-size="36.00" fill="#ff0000">rpit5</text>
<polygon fill="#ffffff" stroke="transparent" points="1724,-1107 1724,-1157 1840,-1157 1840,-1107 1724,-1107"/>
<polygon fill="none" stroke="#ffffff" points="1724,-1107 1724,-1157 1840,-1157 1840,-1107 1724,-1107"/>
<text text-anchor="start" x="1776.5" y="-1123.2" font-family="Arial" font-size="36.00" fill="#ff0000"> </text>
<polygon fill="#add8e6" stroke="transparent" points="1541,-1057 1541,-1107 1840,-1107 1840,-1057 1541,-1057"/>
<polygon fill="none" stroke="#ffffff" points="1541,-1057 1541,-1107 1840,-1107 1840,-1057 1541,-1057"/>
<text text-anchor="start" x="1546" y="-1073.2" font-family="Arial" font-size="36.00" fill="#ff0000">IP: {192.168.8.22}</text>
</g>
<!-- network -->
<g id="node10" class="node">
<title>network</title>
<polygon fill="#ff2200" stroke="transparent" points="1717,-838 1663,-838 1663,-802 1717,-802 1717,-838"/>
</g>
<!-- rpit5&#45;&#45;network -->
<g id="edge1" class="edge">
<title>rpit5&#45;&#45;network</title>
<path fill="none" stroke="#ff2200" d="M1690,-855.9972C1690,-849.9425 1690,-843.6385 1690,-838.0294"/>
</g>
<!-- rpit3 -->
<g id="node2" class="node">
<title>rpit3</title>
<polygon fill="#ffffff" stroke="#ffffff" points="452,-1703 0,-1703 0,-1401 452,-1401 452,-1703"/>
<image xlink:href="img/rpibp.svg" width="452px" height="302px" preserveAspectRatio="xMinYMin meet" x="0" y="-1703"/>
<polygon fill="#add8e6" stroke="transparent" points="77,-1652 77,-1702 260,-1702 260,-1652 77,-1652"/>
<polygon fill="none" stroke="#ffffff" points="77,-1652 77,-1702 260,-1702 260,-1652 77,-1652"/>
<text text-anchor="start" x="129" y="-1669.2" font-family="Arial" font-weight="bold" font-size="36.00" fill="#ff0000">rpit3</text>
<polygon fill="#ffffff" stroke="transparent" points="260,-1652 260,-1702 376,-1702 376,-1652 260,-1652"/>
<polygon fill="none" stroke="#ffffff" points="260,-1652 260,-1702 376,-1702 376,-1652 260,-1652"/>
<text text-anchor="start" x="312.5" y="-1668.2" font-family="Arial" font-size="36.00" fill="#ff0000"> </text>
<polygon fill="#add8e6" stroke="transparent" points="77,-1602 77,-1652 376,-1652 376,-1602 77,-1602"/>
<polygon fill="none" stroke="#ffffff" points="77,-1602 77,-1652 376,-1652 376,-1602 77,-1602"/>
<text text-anchor="start" x="82" y="-1618.2" font-family="Arial" font-size="36.00" fill="#ff0000">IP: {192.168.8.23}</text>
</g>
<!-- rpit3&#45;&#45;network -->
<g id="edge4" class="edge">
<title>rpit3&#45;&#45;network</title>
<path fill="none" stroke="#ff2200" d="M452.087,-1444.4112C800.2771,-1278.7167 1428,-980 1428,-980 1428,-980 1464,-847 1464,-847 1464,-847 1602.63,-830.438 1662.7391,-823.2568"/>
</g>
<!-- rpit4 -->
<g id="node3" class="node">
<title>rpit4</title>
<polygon fill="#ffffff" stroke="#ffffff" points="452,-1383 0,-1383 0,-1081 452,-1081 452,-1383"/>
<image xlink:href="img/rpibp.svg" width="452px" height="302px" preserveAspectRatio="xMinYMin meet" x="0" y="-1383"/>
<polygon fill="#add8e6" stroke="transparent" points="77,-1332 77,-1382 260,-1382 260,-1332 77,-1332"/>
<polygon fill="none" stroke="#ffffff" points="77,-1332 77,-1382 260,-1382 260,-1332 77,-1332"/>
<text text-anchor="start" x="129" y="-1349.2" font-family="Arial" font-weight="bold" font-size="36.00" fill="#ff0000">rpit4</text>
<polygon fill="#ffffff" stroke="transparent" points="260,-1332 260,-1382 376,-1382 376,-1332 260,-1332"/>
<polygon fill="none" stroke="#ffffff" points="260,-1332 260,-1382 376,-1382 376,-1332 260,-1332"/>
<text text-anchor="start" x="312.5" y="-1348.2" font-family="Arial" font-size="36.00" fill="#ff0000"> </text>
<polygon fill="#add8e6" stroke="transparent" points="77,-1282 77,-1332 376,-1332 376,-1282 77,-1282"/>
<polygon fill="none" stroke="#ffffff" points="77,-1282 77,-1332 376,-1332 376,-1282 77,-1282"/>
<text text-anchor="start" x="82" y="-1298.2" font-family="Arial" font-size="36.00" fill="#ff0000">IP: {192.168.8.24}</text>
</g>
<!-- rpit4&#45;&#45;network -->
<g id="edge5" class="edge">
<title>rpit4&#45;&#45;network</title>
<path fill="none" stroke="#ff2200" d="M452.087,-1170.6819C800.2771,-1076.2477 1428,-906 1428,-906 1428,-906 1464,-847 1464,-847 1464,-847 1602.63,-830.438 1662.7391,-823.2568"/>
</g>
<!-- rpip5 -->
<g id="node4" class="node">
<title>rpip5</title>
<polygon fill="#ffffff" stroke="#ffffff" points="452,-1063 0,-1063 0,-761 452,-761 452,-1063"/>
<image xlink:href="img/rpibp.svg" width="452px" height="302px" preserveAspectRatio="xMinYMin meet" x="0" y="-1063"/>
<polygon fill="#add8e6" stroke="transparent" points="77,-1012 77,-1062 265,-1062 265,-1012 77,-1012"/>
<polygon fill="none" stroke="#ffffff" points="77,-1012 77,-1062 265,-1062 265,-1012 77,-1012"/>
<text text-anchor="start" x="126.5" y="-1029.2" font-family="Arial" font-weight="bold" font-size="36.00" fill="#ff0000">rpip5</text>
<polygon fill="#ffffff" stroke="transparent" points="265,-1012 265,-1062 376,-1062 376,-1012 265,-1012"/>
<polygon fill="none" stroke="#ffffff" points="265,-1012 265,-1062 376,-1062 376,-1012 265,-1012"/>
<text text-anchor="start" x="315" y="-1028.2" font-family="Arial" font-size="36.00" fill="#ff0000"> </text>
<polygon fill="#add8e6" stroke="transparent" points="77,-962 77,-1012 376,-1012 376,-962 77,-962"/>
<polygon fill="none" stroke="#ffffff" points="77,-962 77,-1012 376,-1012 376,-962 77,-962"/>
<text text-anchor="start" x="82" y="-978.2" font-family="Arial" font-size="36.00" fill="#ff0000">IP: {192.168.8.25}</text>
</g>
<!-- rpip5&#45;&#45;network -->
<g id="edge6" class="edge">
<title>rpip5&#45;&#45;network</title>
<path fill="none" stroke="#ff2200" d="M452.087,-907.4858C800.2771,-900.5336 1428,-888 1428,-888 1428,-888 1464,-847 1464,-847 1464,-847 1602.63,-830.438 1662.7391,-823.2568"/>
</g>
<!-- rpip6 -->
<g id="node5" class="node">
<title>rpip6</title>
<polygon fill="#ffffff" stroke="#ffffff" points="452,-743 0,-743 0,-441 452,-441 452,-743"/>
<image xlink:href="img/rpibp.svg" width="452px" height="302px" preserveAspectRatio="xMinYMin meet" x="0" y="-743"/>
<polygon fill="#add8e6" stroke="transparent" points="77,-692 77,-742 265,-742 265,-692 77,-692"/>
<polygon fill="none" stroke="#ffffff" points="77,-692 77,-742 265,-742 265,-692 77,-692"/>
<text text-anchor="start" x="126.5" y="-709.2" font-family="Arial" font-weight="bold" font-size="36.00" fill="#ff0000">rpip6</text>
<polygon fill="#ffffff" stroke="transparent" points="265,-692 265,-742 376,-742 376,-692 265,-692"/>
<polygon fill="none" stroke="#ffffff" points="265,-692 265,-742 376,-742 376,-692 265,-692"/>
<text text-anchor="start" x="315" y="-708.2" font-family="Arial" font-size="36.00" fill="#ff0000"> </text>
<polygon fill="#add8e6" stroke="transparent" points="77,-642 77,-692 376,-692 376,-642 77,-642"/>
<polygon fill="none" stroke="#ffffff" points="77,-642 77,-692 376,-692 376,-642 77,-642"/>
<text text-anchor="start" x="82" y="-658.2" font-family="Arial" font-size="36.00" fill="#ff0000">IP: {192.168.8.26}</text>
</g>
<!-- rpip6&#45;&#45;network -->
<g id="edge7" class="edge">
<title>rpip6&#45;&#45;network</title>
<path fill="none" stroke="#ff2200" d="M439.5273,-743.1698C447.4058,-748.7474 452,-752 452,-752 452,-752 488,-855 488,-855 488,-855 940,-855 940,-855 940,-855 1528.4044,-827.5411 1662.864,-821.2663"/>
</g>
<!-- rpip7 -->
<g id="node6" class="node">
<title>rpip7</title>
<polygon fill="#ffffff" stroke="#ffffff" points="940,-846 488,-846 488,-544 940,-544 940,-846"/>
<image xlink:href="img/rpibp.svg" width="452px" height="302px" preserveAspectRatio="xMinYMin meet" x="488" y="-846"/>
<polygon fill="#add8e6" stroke="transparent" points="565,-795 565,-845 753,-845 753,-795 565,-795"/>
<polygon fill="none" stroke="#ffffff" points="565,-795 565,-845 753,-845 753,-795 565,-795"/>
<text text-anchor="start" x="614.5" y="-812.2" font-family="Arial" font-weight="bold" font-size="36.00" fill="#ff0000">rpip7</text>
<polygon fill="#ffffff" stroke="transparent" points="753,-795 753,-845 864,-845 864,-795 753,-795"/>
<polygon fill="none" stroke="#ffffff" points="753,-795 753,-845 864,-845 864,-795 753,-795"/>
<text text-anchor="start" x="803" y="-811.2" font-family="Arial" font-size="36.00" fill="#ff0000"> </text>
<polygon fill="#add8e6" stroke="transparent" points="565,-745 565,-795 864,-795 864,-745 565,-745"/>
<polygon fill="none" stroke="#ffffff" points="565,-745 565,-795 864,-795 864,-745 565,-745"/>
<text text-anchor="start" x="570" y="-761.2" font-family="Arial" font-size="36.00" fill="#ff0000">IP: {192.168.8.27}</text>
</g>
<!-- rpip7&#45;&#45;network -->
<g id="edge8" class="edge">
<title>rpip7&#45;&#45;network</title>
<path fill="none" stroke="#ff2200" d="M940.1194,-735.5634C961.8468,-739.4611 976,-742 976,-742 976,-742 1532.4615,-802.7899 1662.8822,-817.0376"/>
</g>
<!-- rpip8 -->
<g id="node7" class="node">
<title>rpip8</title>
<polygon fill="#ffffff" stroke="#ffffff" points="940,-526 488,-526 488,-224 940,-224 940,-526"/>
<image xlink:href="img/rpibp.svg" width="452px" height="302px" preserveAspectRatio="xMinYMin meet" x="488" y="-526"/>
<polygon fill="#add8e6" stroke="transparent" points="565,-475 565,-525 753,-525 753,-475 565,-475"/>
<polygon fill="none" stroke="#ffffff" points="565,-475 565,-525 753,-525 753,-475 565,-475"/>
<text text-anchor="start" x="614.5" y="-492.2" font-family="Arial" font-weight="bold" font-size="36.00" fill="#ff0000">rpip8</text>
<polygon fill="#ffffff" stroke="transparent" points="753,-475 753,-525 864,-525 864,-475 753,-475"/>
<polygon fill="none" stroke="#ffffff" points="753,-475 753,-525 864,-525 864,-475 753,-475"/>
<text text-anchor="start" x="803" y="-491.2" font-family="Arial" font-size="36.00" fill="#ff0000"> </text>
<polygon fill="#add8e6" stroke="transparent" points="565,-425 565,-475 864,-475 864,-425 565,-425"/>
<polygon fill="none" stroke="#ffffff" points="565,-425 565,-475 864,-475 864,-425 565,-425"/>
<text text-anchor="start" x="570" y="-441.2" font-family="Arial" font-size="36.00" fill="#ff0000">IP: {192.168.8.28}</text>
</g>
<!-- rpip8&#45;&#45;network -->
<g id="edge9" class="edge">
<title>rpip8&#45;&#45;network</title>
<path fill="none" stroke="#ff2200" d="M927.5273,-526.1698C935.4058,-531.7474 940,-535 940,-535 940,-535 976,-709 976,-709 976,-709 1428,-742 1428,-742 1428,-742 1464,-793 1464,-793 1464,-793 1602.63,-809.562 1662.7391,-816.7432"/>
</g>
<!-- rpip9 -->
<g id="node8" class="node">
<title>rpip9</title>
<polygon fill="#ffffff" stroke="#ffffff" points="1428,-700 976,-700 976,-398 1428,-398 1428,-700"/>
<image xlink:href="img/rpibp.svg" width="452px" height="302px" preserveAspectRatio="xMinYMin meet" x="976" y="-700"/>
<polygon fill="#add8e6" stroke="transparent" points="1053,-649 1053,-699 1241,-699 1241,-649 1053,-649"/>
<polygon fill="none" stroke="#ffffff" points="1053,-649 1053,-699 1241,-699 1241,-649 1053,-649"/>
<text text-anchor="start" x="1102.5" y="-666.2" font-family="Arial" font-weight="bold" font-size="36.00" fill="#ff0000">rpip9</text>
<polygon fill="#ffffff" stroke="transparent" points="1241,-649 1241,-699 1352,-699 1352,-649 1241,-649"/>
<polygon fill="none" stroke="#ffffff" points="1241,-649 1241,-699 1352,-699 1352,-649 1241,-649"/>
<text text-anchor="start" x="1291" y="-665.2" font-family="Arial" font-size="36.00" fill="#ff0000"> </text>
<polygon fill="#add8e6" stroke="transparent" points="1053,-599 1053,-649 1352,-649 1352,-599 1053,-599"/>
<polygon fill="none" stroke="#ffffff" points="1053,-599 1053,-649 1352,-649 1352,-599 1053,-599"/>
<text text-anchor="start" x="1058" y="-615.2" font-family="Arial" font-size="36.00" fill="#ff0000">IP: {192.168.8.29}</text>
</g>
<!-- rpip9&#45;&#45;network -->
<g id="edge10" class="edge">
<title>rpip9&#45;&#45;network</title>
<path fill="none" stroke="#ff2200" d="M1409.1201,-700.216C1420.8608,-708.7877 1428,-714 1428,-714 1428,-714 1464,-793 1464,-793 1464,-793 1602.63,-809.562 1662.7391,-816.7432"/>
</g>
<!-- rpip10 -->
<g id="node9" class="node">
<title>rpip10</title>
<polygon fill="#ffffff" stroke="#ffffff" points="1428,-380 976,-380 976,-78 1428,-78 1428,-380"/>
<image xlink:href="img/rpibp.svg" width="452px" height="302px" preserveAspectRatio="xMinYMin meet" x="976" y="-380"/>
<polygon fill="#add8e6" stroke="transparent" points="1053,-329 1053,-379 1251,-379 1251,-329 1053,-329"/>
<polygon fill="none" stroke="#ffffff" points="1053,-329 1053,-379 1251,-379 1251,-329 1053,-329"/>
<text text-anchor="start" x="1097.5" y="-346.2" font-family="Arial" font-weight="bold" font-size="36.00" fill="#ff0000">rpip10</text>
<polygon fill="#ffffff" stroke="transparent" points="1251,-329 1251,-379 1352,-379 1352,-329 1251,-329"/>
<polygon fill="none" stroke="#ffffff" points="1251,-329 1251,-379 1352,-379 1352,-329 1251,-329"/>
<text text-anchor="start" x="1296" y="-345.2" font-family="Arial" font-size="36.00" fill="#ff0000"> </text>
<polygon fill="#add8e6" stroke="transparent" points="1053,-279 1053,-329 1352,-329 1352,-279 1053,-279"/>
<polygon fill="none" stroke="#ffffff" points="1053,-279 1053,-329 1352,-329 1352,-279 1053,-279"/>
<text text-anchor="start" x="1058" y="-295.2" font-family="Arial" font-size="36.00" fill="#ff0000">IP: {192.168.8.30}</text>
</g>
<!-- rpip10&#45;&#45;network -->
<g id="edge11" class="edge">
<title>rpip10&#45;&#45;network</title>
<path fill="none" stroke="#ff2200" d="M1415.5273,-380.1698C1423.4058,-385.7474 1428,-389 1428,-389 1428,-389 1464,-793 1464,-793 1464,-793 1602.63,-809.562 1662.7391,-816.7432"/>
</g>
<!-- server -->
<g id="node11" class="node">
<title>server</title>
<polygon fill="#add8e6" stroke="#add8e6" points="1751.5,-784 1628.5,-784 1628.5,-686 1751.5,-686 1751.5,-784"/>
<image xlink:href="img/servers.png" width="123px" height="98px" preserveAspectRatio="xMinYMin meet" x="1628.5" y="-784"/>
<text text-anchor="middle" x="1690" y="-697.2" font-family="Arial" font-size="36.00" fill="#000000">Broker</text>
</g>
<!-- network&#45;&#45;server -->
<g id="edge3" class="edge">
<title>network&#45;&#45;server</title>
<path fill="none" stroke="#ff2200" d="M1690,-801.8957C1690,-796.3428 1690,-791.6667 1690,-791.6667 1690,-791.6667 1690,-788.4691 1690,-784.2224"/>
</g>
<!-- cloud -->
<g id="node12" class="node">
<title>cloud</title>
<polygon fill="#ffffff" stroke="#ffffff" points="1795.5,-668 1584.5,-668 1584.5,-620 1795.5,-620 1795.5,-668"/>
<image xlink:href="img/cloud.png" width="64px" height="48px" preserveAspectRatio="xMinYMin meet" x="1658" y="-668"/>
<text text-anchor="middle" x="1690" y="-631.2" font-family="Arial" font-size="36.00" fill="#000000">The Internet</text>
</g>
<!-- server&#45;&#45;cloud -->
<g id="edge2" class="edge">
<title>server&#45;&#45;cloud</title>
<path fill="none" stroke="#0022ff" d="M1690,-685.9742C1690,-679.732 1690,-674.3333 1690,-674.3333 1690,-674.3333 1690,-671.7988 1690,-668.1949"/>
</g>
</g>
</svg>
