<?xml version="1.0" encoding="UTF-8" standalone="no"?>
<!DOCTYPE svg PUBLIC "-//W3C//DTD SVG 1.1//EN"
 "http://www.w3.org/Graphics/SVG/1.1/DTD/svg11.dtd">
<!-- Generated by graphviz version 2.40.1 (20161225.0304)
 -->
<!-- Title: demotopo Pages: 1 -->
<svg width="2200pt" height="1402pt"
 viewBox="0.00 0.00 2200.00 1402.00" xmlns="http://www.w3.org/2000/svg" xmlns:xlink="http://www.w3.org/1999/xlink">
<g id="graph0" class="graph" transform="scale(1 1) rotate(0) translate(4 1398)">
<title>demotopo</title>
<polygon fill="#ffffff" stroke="transparent" points="-4,4 -4,-1398 2196,-1398 2196,4 -4,4"/>
<text text-anchor="middle" x="1096" y="-22.8" font-family="Arial" font-size="64.00" fill="#000000">IoT Dashboard</text>
<!-- rpit5 -->
<g id="rpit5" class="node">
<title>rpit5</title>
<polygon fill="#ffffff" stroke="#ffffff" points="689,-380 237,-380 237,-78 689,-78 689,-380"/>
<image xlink:href="img/rpibp.svg" width="452px" height="302px" preserveAspectRatio="xMinYMin meet" x="237" y="-380"/>
<polygon fill="#add8e6" stroke="transparent" points="326,-329 326,-379 497,-379 497,-329 326,-329"/>
<polygon fill="none" stroke="#ffffff" points="326,-329 326,-379 497,-379 497,-329 326,-329"/>
<text text-anchor="start" x="372" y="-346.2" font-family="Arial" font-weight="bold" font-size="36.00" fill="#ff0000">rpit5</text>
<polygon fill="#ffffff" stroke="transparent" points="497,-329 497,-379 601,-379 601,-329 497,-329"/>
<polygon fill="none" stroke="#ffffff" points="497,-329 497,-379 601,-379 601,-329 497,-329"/>
<text text-anchor="start" x="543.5" y="-345.2" font-family="Arial" font-size="36.00" fill="#ff0000"> </text>
<polygon fill="#add8e6" stroke="transparent" points="326,-279 326,-329 601,-329 601,-279 326,-279"/>
<polygon fill="none" stroke="#ffffff" points="326,-279 326,-329 601,-329 601,-279 326,-279"/>
<text text-anchor="start" x="331" y="-295.2" font-family="Arial" font-size="36.00" fill="#ff0000">IP: 192.168.8.22</text>
</g>
<!-- network -->
<g id="node10" class="node">
<title>network</title>
<polygon fill="#ff2200" stroke="transparent" points="1231,-247 1177,-247 1177,-211 1231,-211 1231,-247"/>
</g>
<!-- rpit5&#45;&#45;network -->
<g id="edge1" class="edge">
<title>rpit5&#45;&#45;network</title>
<path fill="none" stroke="#ff2200" d="M661.7986,-380.124C676.6205,-387.1465 691.7529,-393.2354 707,-398 754.9362,-412.9797 1116.2784,-424.4034 1159,-398 1209.7519,-366.6336 1209.1047,-283.8487 1206.0621,-247.0611"/>
</g>
<!-- rpit3 -->
<g id="rpit3" class="node">
<title>rpit3</title>
<polygon fill="#ffffff" stroke="#ffffff" points="452,-1394 0,-1394 0,-1092 452,-1092 452,-1394"/>
<image xlink:href="img/rpibp.svg" width="452px" height="302px" preserveAspectRatio="xMinYMin meet" x="0" y="-1394"/>
<polygon fill="#add8e6" stroke="transparent" points="89,-1343 89,-1393 260,-1393 260,-1343 89,-1343"/>
<polygon fill="none" stroke="#ffffff" points="89,-1343 89,-1393 260,-1393 260,-1343 89,-1343"/>
<text text-anchor="start" x="135" y="-1360.2" font-family="Arial" font-weight="bold" font-size="36.00" fill="#ff0000">rpit3</text>
<polygon fill="#ffffff" stroke="transparent" points="260,-1343 260,-1393 364,-1393 364,-1343 260,-1343"/>
<polygon fill="none" stroke="#ffffff" points="260,-1343 260,-1393 364,-1393 364,-1343 260,-1343"/>
<text text-anchor="start" x="306.5" y="-1359.2" font-family="Arial" font-size="36.00" fill="#ff0000"> </text>
<polygon fill="#add8e6" stroke="transparent" points="89,-1293 89,-1343 364,-1343 364,-1293 89,-1293"/>
<polygon fill="none" stroke="#ffffff" points="89,-1293 89,-1343 364,-1343 364,-1293 89,-1293"/>
<text text-anchor="start" x="94" y="-1309.2" font-family="Arial" font-size="36.00" fill="#ff0000">IP: 192.168.8.23</text>
</g>
<!-- rpit3&#45;&#45;network -->
<g id="edge4" class="edge">
<title>rpit3&#45;&#45;network</title>
<path fill="none" stroke="#ff2200" d="M280.0705,-1091.7856C357.9776,-898.407 521.6225,-570.157 781,-416 855.2477,-371.872 1102.7678,-436.6106 1168,-380 1206.6728,-346.4385 1207.771,-279.5177 1205.7668,-247.2424"/>
</g>
<!-- rpit4 -->
<g id="rpit4" class="node">
<title>rpit4</title>
<polygon fill="#ffffff" stroke="#ffffff" points="922,-1394 470,-1394 470,-1092 922,-1092 922,-1394"/>
<image xlink:href="img/rpibp.svg" width="452px" height="302px" preserveAspectRatio="xMinYMin meet" x="470" y="-1394"/>
<polygon fill="#add8e6" stroke="transparent" points="559,-1343 559,-1393 730,-1393 730,-1343 559,-1343"/>
<polygon fill="none" stroke="#ffffff" points="559,-1343 559,-1393 730,-1393 730,-1343 559,-1343"/>
<text text-anchor="start" x="605" y="-1360.2" font-family="Arial" font-weight="bold" font-size="36.00" fill="#ff0000">rpit4</text>
<polygon fill="#ffffff" stroke="transparent" points="730,-1343 730,-1393 834,-1393 834,-1343 730,-1343"/>
<polygon fill="none" stroke="#ffffff" points="730,-1343 730,-1393 834,-1393 834,-1343 730,-1343"/>
<text text-anchor="start" x="776.5" y="-1359.2" font-family="Arial" font-size="36.00" fill="#ff0000"> </text>
<polygon fill="#add8e6" stroke="transparent" points="559,-1293 559,-1343 834,-1343 834,-1293 559,-1293"/>
<polygon fill="none" stroke="#ffffff" points="559,-1293 559,-1343 834,-1343 834,-1293 559,-1293"/>
<text text-anchor="start" x="564" y="-1309.2" font-family="Arial" font-size="36.00" fill="#ff0000">IP: 192.168.8.24</text>
</g>
<!-- rpit4&#45;&#45;network -->
<g id="edge5" class="edge">
<title>rpit4&#45;&#45;network</title>
<path fill="none" stroke="#ff2200" d="M702.6129,-1091.9514C719.3918,-904.1905 777.3304,-587.5995 975,-416 1040.8922,-358.7982 1104.7878,-440.1502 1168,-380 1204.9971,-344.7951 1206.9472,-278.9699 1205.4639,-247.1473"/>
</g>
<!-- rpip5 -->
<g id="rpip5" class="node">
<title>rpip5</title>
<polygon fill="#ffffff" stroke="#ffffff" points="1392,-1394 940,-1394 940,-1092 1392,-1092 1392,-1394"/>
<image xlink:href="img/rpibp.svg" width="452px" height="302px" preserveAspectRatio="xMinYMin meet" x="940" y="-1394"/>
<polygon fill="#add8e6" stroke="transparent" points="1029,-1343 1029,-1393 1205,-1393 1205,-1343 1029,-1343"/>
<polygon fill="none" stroke="#ffffff" points="1029,-1343 1029,-1393 1205,-1393 1205,-1343 1029,-1343"/>
<text text-anchor="start" x="1072.5" y="-1360.2" font-family="Arial" font-weight="bold" font-size="36.00" fill="#ff0000">rpip5</text>
<polygon fill="#ffffff" stroke="transparent" points="1205,-1343 1205,-1393 1304,-1393 1304,-1343 1205,-1343"/>
<polygon fill="none" stroke="#ffffff" points="1205,-1343 1205,-1393 1304,-1393 1304,-1343 1205,-1343"/>
<text text-anchor="start" x="1249" y="-1359.2" font-family="Arial" font-size="36.00" fill="#ff0000"> </text>
<polygon fill="#add8e6" stroke="transparent" points="1029,-1293 1029,-1343 1304,-1343 1304,-1293 1029,-1293"/>
<polygon fill="none" stroke="#ffffff" points="1029,-1293 1029,-1343 1304,-1343 1304,-1293 1029,-1293"/>
<text text-anchor="start" x="1034" y="-1309.2" font-family="Arial" font-size="36.00" fill="#ff0000">IP: 192.168.8.25</text>
</g>
<!-- rpip5&#45;&#45;network -->
<g id="edge6" class="edge">
<title>rpip5&#45;&#45;network</title>
<path fill="none" stroke="#ff2200" d="M988.5452,-1091.9939C980.9844,-1080.4743 974.3508,-1068.4569 969,-1056 916.0255,-932.674 936.5096,-884.2305 969,-754 1014.5777,-571.312 1101.4045,-556.1172 1168,-380 1185.5388,-333.6172 1196.4632,-275.9028 1201.2209,-247.1075"/>
</g>
<!-- rpip6 -->
<g id="rpip6" class="node">
<title>rpip6</title>
<polygon fill="#ffffff" stroke="#ffffff" points="1430,-1056 978,-1056 978,-754 1430,-754 1430,-1056"/>
<image xlink:href="img/rpibp.svg" width="452px" height="302px" preserveAspectRatio="xMinYMin meet" x="978" y="-1056"/>
<polygon fill="#add8e6" stroke="transparent" points="1067,-1005 1067,-1055 1243,-1055 1243,-1005 1067,-1005"/>
<polygon fill="none" stroke="#ffffff" points="1067,-1005 1067,-1055 1243,-1055 1243,-1005 1067,-1005"/>
<text text-anchor="start" x="1110.5" y="-1022.2" font-family="Arial" font-weight="bold" font-size="36.00" fill="#ff0000">rpip6</text>
<polygon fill="#ffffff" stroke="transparent" points="1243,-1005 1243,-1055 1342,-1055 1342,-1005 1243,-1005"/>
<polygon fill="none" stroke="#ffffff" points="1243,-1005 1243,-1055 1342,-1055 1342,-1005 1243,-1005"/>
<text text-anchor="start" x="1287" y="-1021.2" font-family="Arial" font-size="36.00" fill="#ff0000"> </text>
<polygon fill="#add8e6" stroke="transparent" points="1067,-955 1067,-1005 1342,-1005 1342,-955 1067,-955"/>
<polygon fill="none" stroke="#ffffff" points="1067,-955 1067,-1005 1342,-1005 1342,-955 1067,-955"/>
<text text-anchor="start" x="1072" y="-971.2" font-family="Arial" font-size="36.00" fill="#ff0000">IP: 192.168.8.26</text>
</g>
<!-- rpip6&#45;&#45;network -->
<g id="edge7" class="edge">
<title>rpip6&#45;&#45;network</title>
<path fill="none" stroke="#ff2200" d="M1204,-753.7133C1204,-582.4654 1204,-318.0357 1204,-247.0514"/>
</g>
<!-- rpip7 -->
<g id="rpip7" class="node">
<title>rpip7</title>
<polygon fill="#ffffff" stroke="#ffffff" points="1900,-1056 1448,-1056 1448,-754 1900,-754 1900,-1056"/>
<image xlink:href="img/rpibp.svg" width="452px" height="302px" preserveAspectRatio="xMinYMin meet" x="1448" y="-1056"/>
<polygon fill="#add8e6" stroke="transparent" points="1537,-1005 1537,-1055 1713,-1055 1713,-1005 1537,-1005"/>
<polygon fill="none" stroke="#ffffff" points="1537,-1005 1537,-1055 1713,-1055 1713,-1005 1537,-1005"/>
<text text-anchor="start" x="1580.5" y="-1022.2" font-family="Arial" font-weight="bold" font-size="36.00" fill="#ff0000">rpip7</text>
<polygon fill="#ffffff" stroke="transparent" points="1713,-1005 1713,-1055 1812,-1055 1812,-1005 1713,-1005"/>
<polygon fill="none" stroke="#ffffff" points="1713,-1005 1713,-1055 1812,-1055 1812,-1005 1713,-1005"/>
<text text-anchor="start" x="1757" y="-1021.2" font-family="Arial" font-size="36.00" fill="#ff0000"> </text>
<polygon fill="#add8e6" stroke="transparent" points="1537,-955 1537,-1005 1812,-1005 1812,-955 1537,-955"/>
<polygon fill="none" stroke="#ffffff" points="1537,-955 1537,-1005 1812,-1005 1812,-955 1537,-955"/>
<text text-anchor="start" x="1542" y="-971.2" font-family="Arial" font-size="36.00" fill="#ff0000">IP: 192.168.8.27</text>
</g>
<!-- rpip7&#45;&#45;network -->
<g id="edge8" class="edge">
<title>rpip7&#45;&#45;network</title>
<path fill="none" stroke="#ff2200" d="M1447.7706,-757.6633C1444.8452,-756.4068 1441.921,-755.1848 1439,-754 1364.2057,-723.6622 1315.6404,-777.4054 1261,-718 1244.6723,-700.2484 1212.8161,-333.5415 1205.5156,-247.1262"/>
</g>
<!-- rpip8 -->
<g id="rpip8" class="node">
<title>rpip8</title>
<polygon fill="#ffffff" stroke="#ffffff" points="1722,-718 1270,-718 1270,-416 1722,-416 1722,-718"/>
<image xlink:href="img/rpibp.svg" width="452px" height="302px" preserveAspectRatio="xMinYMin meet" x="1270" y="-718"/>
<polygon fill="#add8e6" stroke="transparent" points="1359,-667 1359,-717 1535,-717 1535,-667 1359,-667"/>
<polygon fill="none" stroke="#ffffff" points="1359,-667 1359,-717 1535,-717 1535,-667 1359,-667"/>
<text text-anchor="start" x="1402.5" y="-684.2" font-family="Arial" font-weight="bold" font-size="36.00" fill="#ff0000">rpip8</text>
<polygon fill="#ffffff" stroke="transparent" points="1535,-667 1535,-717 1634,-717 1634,-667 1535,-667"/>
<polygon fill="none" stroke="#ffffff" points="1535,-667 1535,-717 1634,-717 1634,-667 1535,-667"/>
<text text-anchor="start" x="1579" y="-683.2" font-family="Arial" font-size="36.00" fill="#ff0000"> </text>
<polygon fill="#add8e6" stroke="transparent" points="1359,-617 1359,-667 1634,-667 1634,-617 1359,-617"/>
<polygon fill="none" stroke="#ffffff" points="1359,-617 1359,-667 1634,-667 1634,-617 1359,-617"/>
<text text-anchor="start" x="1364" y="-633.2" font-family="Arial" font-size="36.00" fill="#ff0000">IP: 192.168.8.28</text>
</g>
<!-- rpip8&#45;&#45;network -->
<g id="edge9" class="edge">
<title>rpip8&#45;&#45;network</title>
<path fill="none" stroke="#ff2200" d="M1269.8104,-416.6337C1259.2654,-405.0015 1249.5417,-392.7801 1241,-380 1213.1036,-338.2613 1206.2121,-277.4623 1204.5291,-247.3336"/>
</g>
<!-- rpip9 -->
<g id="rpip9" class="node">
<title>rpip9</title>
<polygon fill="#ffffff" stroke="#ffffff" points="2192,-718 1740,-718 1740,-416 2192,-416 2192,-718"/>
<image xlink:href="img/rpibp.svg" width="452px" height="302px" preserveAspectRatio="xMinYMin meet" x="1740" y="-718"/>
<polygon fill="#add8e6" stroke="transparent" points="1829,-667 1829,-717 2005,-717 2005,-667 1829,-667"/>
<polygon fill="none" stroke="#ffffff" points="1829,-667 1829,-717 2005,-717 2005,-667 1829,-667"/>
<text text-anchor="start" x="1872.5" y="-684.2" font-family="Arial" font-weight="bold" font-size="36.00" fill="#ff0000">rpip9</text>
<polygon fill="#ffffff" stroke="transparent" points="2005,-667 2005,-717 2104,-717 2104,-667 2005,-667"/>
<polygon fill="none" stroke="#ffffff" points="2005,-667 2005,-717 2104,-717 2104,-667 2005,-667"/>
<text text-anchor="start" x="2049" y="-683.2" font-family="Arial" font-size="36.00" fill="#ff0000"> </text>
<polygon fill="#add8e6" stroke="transparent" points="1829,-617 1829,-667 2104,-667 2104,-617 1829,-617"/>
<polygon fill="none" stroke="#ffffff" points="1829,-617 1829,-667 2104,-667 2104,-617 1829,-617"/>
<text text-anchor="start" x="1834" y="-633.2" font-family="Arial" font-size="36.00" fill="#ff0000">IP: 192.168.8.29</text>
</g>
<!-- rpip9&#45;&#45;network -->
<g id="edge10" class="edge">
<title>rpip9&#45;&#45;network</title>
<path fill="none" stroke="#ff2200" d="M1739.9669,-419.1317C1736.9795,-418.0431 1733.9899,-416.9982 1731,-416 1627.4371,-381.4238 1324.3722,-450.4972 1241,-380 1201.7373,-346.8006 1200.42,-279.3957 1202.3162,-247.0767"/>
</g>
<!-- rpip10 -->
<g id="rpip10" class="node">
<title>rpip10</title>
<polygon fill="#ffffff" stroke="#ffffff" points="1159,-380 707,-380 707,-78 1159,-78 1159,-380"/>
<image xlink:href="img/rpibp.svg" width="452px" height="302px" preserveAspectRatio="xMinYMin meet" x="707" y="-380"/>
<polygon fill="#add8e6" stroke="transparent" points="796,-329 796,-379 982,-379 982,-329 796,-329"/>
<polygon fill="none" stroke="#ffffff" points="796,-329 796,-379 982,-379 982,-329 796,-329"/>
<text text-anchor="start" x="834.5" y="-346.2" font-family="Arial" font-weight="bold" font-size="36.00" fill="#ff0000">rpip10</text>
<polygon fill="#ffffff" stroke="transparent" points="982,-329 982,-379 1071,-379 1071,-329 982,-329"/>
<polygon fill="none" stroke="#ffffff" points="982,-329 982,-379 1071,-379 1071,-329 982,-329"/>
<text text-anchor="start" x="1021" y="-345.2" font-family="Arial" font-size="36.00" fill="#ff0000"> </text>
<polygon fill="#add8e6" stroke="transparent" points="796,-279 796,-329 1071,-329 1071,-279 796,-279"/>
<polygon fill="none" stroke="#ffffff" points="796,-279 796,-329 1071,-329 1071,-279 796,-279"/>
<text text-anchor="start" x="801" y="-295.2" font-family="Arial" font-size="36.00" fill="#ff0000">IP: 192.168.8.30</text>
</g>
<!-- rpip10&#45;&#45;network -->
<g id="edge11" class="edge">
<title>rpip10&#45;&#45;network</title>
<path fill="none" stroke="#ff2200" d="M1159.0098,-229C1164.985,-229 1170.9603,-229 1176.9356,-229"/>
</g>
<!-- server -->
<g id="node11" class="node">
<title>server</title>
<polygon fill="#add8e6" stroke="#add8e6" points="1372.5,-278 1249.5,-278 1249.5,-180 1372.5,-180 1372.5,-278"/>
<image xlink:href="img/servers.png" width="123px" height="98px" preserveAspectRatio="xMinYMin meet" x="1249.5" y="-278"/>
<text text-anchor="middle" x="1311" y="-191.2" font-family="Arial" font-size="36.00" fill="#000000">Broker</text>
</g>
<!-- network&#45;&#45;server -->
<g id="edge3" class="edge">
<title>network&#45;&#45;server</title>
<path fill="none" stroke="#ff2200" d="M1231.168,-229C1237.197,-229 1243.2259,-229 1249.2549,-229"/>
</g>
<!-- cloud -->
<g id="node12" class="node">
<title>cloud</title>
<polygon fill="#ffffff" stroke="#ffffff" points="1601.5,-253 1390.5,-253 1390.5,-205 1601.5,-205 1601.5,-253"/>
<image xlink:href="img/cloud.png" width="64px" height="48px" preserveAspectRatio="xMinYMin meet" x="1464" y="-253"/>
<text text-anchor="middle" x="1496" y="-216.2" font-family="Arial" font-size="36.00" fill="#000000">The Internet</text>
</g>
<!-- server&#45;&#45;cloud -->
<g id="edge2" class="edge">
<title>server&#45;&#45;cloud</title>
<path fill="none" stroke="#0022ff" d="M1372.7871,-229C1378.5627,-229 1384.3383,-229 1390.1139,-229"/>
</g>
</g>
</svg>
