<?xml version="1.0" encoding="UTF-8" standalone="no"?>
<!DOCTYPE svg PUBLIC "-//W3C//DTD SVG 1.1//EN"
 "http://www.w3.org/Graphics/SVG/1.1/DTD/svg11.dtd">
<!-- Generated by graphviz version 2.40.1 (20161225.0304)
 -->
<!-- Title: demotopo Pages: 1 -->
<svg width="2276pt" height="1500pt"
 viewBox="0.00 0.00 2276.00 1500.10" xmlns="http://www.w3.org/2000/svg" xmlns:xlink="http://www.w3.org/1999/xlink">
<g id="graph0" class="graph" transform="scale(1 1) rotate(0) translate(4 1496.0975)">
<title>demotopo</title>
<polygon fill="#ffffff" stroke="transparent" points="-4,4 -4,-1496.0975 2272,-1496.0975 2272,4 -4,4"/>
<text text-anchor="middle" x="1134" y="-22.8" font-family="Arial" font-size="64.00" fill="#000000">IoT Dashboard</text>
<!-- rpit5 -->
<g id="rpit5" class="node">
<title>rpit5</title>
<polygon fill="#ffffff" stroke="#ffffff" points="452,-816.0975 0,-816.0975 0,-514.0975 452,-514.0975 452,-816.0975"/>
<image xlink:href="img/rpibp.svg" width="452px" height="302px" preserveAspectRatio="xMinYMin meet" x="0" y="-816.098"/>
<polygon fill="#ffffff" stroke="transparent" points="74,-761.0975 74,-815.0975 166,-815.0975 166,-761.0975 74,-761.0975"/>
<polygon fill="none" stroke="#ffffff" points="74,-761.0975 74,-815.0975 166,-815.0975 166,-761.0975 74,-761.0975"/>
<text text-anchor="start" x="114" y="-778.0975" font-family="Arial" font-size="40.00" fill="#ff0000"> </text>
<polygon fill="#add8e6" stroke="transparent" points="166,-761.0975 166,-815.0975 298,-815.0975 298,-761.0975 166,-761.0975"/>
<polygon fill="none" stroke="#ffffff" points="166,-761.0975 166,-815.0975 298,-815.0975 298,-761.0975 166,-761.0975"/>
<text text-anchor="start" x="188.5" y="-779.0975" font-family="Arial" font-weight="bold" font-size="40.00" fill="#ff0000">rpit5</text>
<polygon fill="#ffffff" stroke="transparent" points="298,-761.0975 298,-815.0975 338,-815.0975 338,-761.0975 298,-761.0975"/>
<polygon fill="none" stroke="#ffffff" points="298,-761.0975 298,-815.0975 338,-815.0975 338,-761.0975 298,-761.0975"/>
<text text-anchor="start" x="312" y="-778.0975" font-family="Arial" font-size="40.00" fill="#ff0000"> </text>
<polygon fill="#ffffff" stroke="transparent" points="338,-761.0975 338,-815.0975 378,-815.0975 378,-761.0975 338,-761.0975"/>
<polygon fill="none" stroke="#ffffff" points="338,-761.0975 338,-815.0975 378,-815.0975 378,-761.0975 338,-761.0975"/>
<text text-anchor="start" x="352" y="-778.0975" font-family="Arial" font-size="40.00" fill="#ff0000"> </text>
<polygon fill="#add8e6" stroke="transparent" points="74,-707.0975 74,-761.0975 378,-761.0975 378,-707.0975 74,-707.0975"/>
<polygon fill="none" stroke="#ffffff" points="74,-707.0975 74,-761.0975 378,-761.0975 378,-707.0975 74,-707.0975"/>
<text text-anchor="start" x="79" y="-724.0975" font-family="Arial" font-size="40.00" fill="#ff0000">IP: 192.168.8.22</text>
</g>
<!-- network -->
<g id="node10" class="node">
<title>network</title>
<polygon fill="#ff2200" stroke="#ff2200" points="1053,-478.0975 999,-478.0975 999,-442.0975 1053,-442.0975 1053,-478.0975"/>
</g>
<!-- rpit5&#45;&#45;network -->
<g id="edge11" class="edge">
<title>rpit5&#45;&#45;network</title>
<path fill="none" stroke="#ff2200" stroke-width="6" d="M452.0237,-519.1751C456.6799,-517.3835 461.3411,-515.6874 466,-514.0975 566.6429,-479.7529 901.2329,-464.7656 998.971,-461.0537"/>
</g>
<!-- rpit3 -->
<g id="rpit3" class="node">
<title>rpit3</title>
<polygon fill="#ffffff" stroke="#ffffff" points="490,-1492.0975 38,-1492.0975 38,-1190.0975 490,-1190.0975 490,-1492.0975"/>
<image xlink:href="img/rpibp.svg" width="452px" height="302px" preserveAspectRatio="xMinYMin meet" x="38" y="-1492.1"/>
<polygon fill="#ffffff" stroke="transparent" points="112,-1437.0975 112,-1491.0975 204,-1491.0975 204,-1437.0975 112,-1437.0975"/>
<polygon fill="none" stroke="#ffffff" points="112,-1437.0975 112,-1491.0975 204,-1491.0975 204,-1437.0975 112,-1437.0975"/>
<text text-anchor="start" x="152" y="-1454.0975" font-family="Arial" font-size="40.00" fill="#ff0000"> </text>
<polygon fill="#add8e6" stroke="transparent" points="204,-1437.0975 204,-1491.0975 336,-1491.0975 336,-1437.0975 204,-1437.0975"/>
<polygon fill="none" stroke="#ffffff" points="204,-1437.0975 204,-1491.0975 336,-1491.0975 336,-1437.0975 204,-1437.0975"/>
<text text-anchor="start" x="226.5" y="-1455.0975" font-family="Arial" font-weight="bold" font-size="40.00" fill="#ff0000">rpit3</text>
<polygon fill="#ffffff" stroke="transparent" points="336,-1437.0975 336,-1491.0975 376,-1491.0975 376,-1437.0975 336,-1437.0975"/>
<polygon fill="none" stroke="#ffffff" points="336,-1437.0975 336,-1491.0975 376,-1491.0975 376,-1437.0975 336,-1437.0975"/>
<text text-anchor="start" x="350" y="-1454.0975" font-family="Arial" font-size="40.00" fill="#ff0000"> </text>
<polygon fill="#ffffff" stroke="transparent" points="376,-1437.0975 376,-1491.0975 416,-1491.0975 416,-1437.0975 376,-1437.0975"/>
<polygon fill="none" stroke="#ffffff" points="376,-1437.0975 376,-1491.0975 416,-1491.0975 416,-1437.0975 376,-1437.0975"/>
<text text-anchor="start" x="390" y="-1454.0975" font-family="Arial" font-size="40.00" fill="#ff0000"> </text>
<polygon fill="#add8e6" stroke="transparent" points="112,-1383.0975 112,-1437.0975 416,-1437.0975 416,-1383.0975 112,-1383.0975"/>
<polygon fill="none" stroke="#ffffff" points="112,-1383.0975 112,-1437.0975 416,-1437.0975 416,-1383.0975 112,-1383.0975"/>
<text text-anchor="start" x="117" y="-1400.0975" font-family="Arial" font-size="40.00" fill="#ff0000">IP: 192.168.8.23</text>
</g>
<!-- rpit3&#45;&#45;network -->
<g id="edge3" class="edge">
<title>rpit3&#45;&#45;network</title>
<path fill="none" stroke="#ff2200" stroke-width="6" d="M319.8641,-1190.0119C402.225,-975.5934 559.0957,-599.4846 676,-514.0975 727.5733,-476.4283 925.9403,-464.3352 998.8833,-461.1148"/>
</g>
<!-- rpit4 -->
<g id="rpit4" class="node">
<title>rpit4</title>
<polygon fill="#ffffff" stroke="#ffffff" points="960,-1492.0975 508,-1492.0975 508,-1190.0975 960,-1190.0975 960,-1492.0975"/>
<image xlink:href="img/rpibp.svg" width="452px" height="302px" preserveAspectRatio="xMinYMin meet" x="508" y="-1492.1"/>
<polygon fill="#ffffff" stroke="transparent" points="582,-1437.0975 582,-1491.0975 674,-1491.0975 674,-1437.0975 582,-1437.0975"/>
<polygon fill="none" stroke="#ffffff" points="582,-1437.0975 582,-1491.0975 674,-1491.0975 674,-1437.0975 582,-1437.0975"/>
<text text-anchor="start" x="622" y="-1454.0975" font-family="Arial" font-size="40.00" fill="#ff0000"> </text>
<polygon fill="#add8e6" stroke="transparent" points="674,-1437.0975 674,-1491.0975 806,-1491.0975 806,-1437.0975 674,-1437.0975"/>
<polygon fill="none" stroke="#ffffff" points="674,-1437.0975 674,-1491.0975 806,-1491.0975 806,-1437.0975 674,-1437.0975"/>
<text text-anchor="start" x="696.5" y="-1455.0975" font-family="Arial" font-weight="bold" font-size="40.00" fill="#ff0000">rpit4</text>
<polygon fill="#ffffff" stroke="transparent" points="806,-1437.0975 806,-1491.0975 846,-1491.0975 846,-1437.0975 806,-1437.0975"/>
<polygon fill="none" stroke="#ffffff" points="806,-1437.0975 806,-1491.0975 846,-1491.0975 846,-1437.0975 806,-1437.0975"/>
<text text-anchor="start" x="820" y="-1454.0975" font-family="Arial" font-size="40.00" fill="#ff0000"> </text>
<polygon fill="#ffffff" stroke="transparent" points="846,-1437.0975 846,-1491.0975 886,-1491.0975 886,-1437.0975 846,-1437.0975"/>
<polygon fill="none" stroke="#ffffff" points="846,-1437.0975 846,-1491.0975 886,-1491.0975 886,-1437.0975 846,-1437.0975"/>
<text text-anchor="start" x="860" y="-1454.0975" font-family="Arial" font-size="40.00" fill="#ff0000"> </text>
<polygon fill="#add8e6" stroke="transparent" points="582,-1383.0975 582,-1437.0975 886,-1437.0975 886,-1383.0975 582,-1383.0975"/>
<polygon fill="none" stroke="#ffffff" points="582,-1383.0975 582,-1437.0975 886,-1437.0975 886,-1383.0975 582,-1383.0975"/>
<text text-anchor="start" x="587" y="-1400.0975" font-family="Arial" font-size="40.00" fill="#ff0000">IP: 192.168.8.24</text>
</g>
<!-- rpit4&#45;&#45;network -->
<g id="edge4" class="edge">
<title>rpit4&#45;&#45;network</title>
<path fill="none" stroke="#ff2200" stroke-width="6" d="M697.5564,-1190.0599C663.0587,-1006.7308 637.946,-699.2042 801,-514.0975 826.9558,-484.6313 944.487,-468.6776 998.5892,-462.7827"/>
</g>
<!-- rpip5 -->
<g id="rpip5" class="node">
<title>rpip5</title>
<polygon fill="#ffffff" stroke="#ffffff" points="1430,-1492.0975 978,-1492.0975 978,-1190.0975 1430,-1190.0975 1430,-1492.0975"/>
<image xlink:href="img/rpibp.svg" width="452px" height="302px" preserveAspectRatio="xMinYMin meet" x="978" y="-1492.1"/>
<polygon fill="#ffffff" stroke="transparent" points="1052,-1437.0975 1052,-1491.0975 1139,-1491.0975 1139,-1437.0975 1052,-1437.0975"/>
<polygon fill="none" stroke="#ffffff" points="1052,-1437.0975 1052,-1491.0975 1139,-1491.0975 1139,-1437.0975 1052,-1437.0975"/>
<text text-anchor="start" x="1089.5" y="-1454.0975" font-family="Arial" font-size="40.00" fill="#ff0000"> </text>
<polygon fill="#add8e6" stroke="transparent" points="1139,-1437.0975 1139,-1491.0975 1279,-1491.0975 1279,-1437.0975 1139,-1437.0975"/>
<polygon fill="none" stroke="#ffffff" points="1139,-1437.0975 1139,-1491.0975 1279,-1491.0975 1279,-1437.0975 1139,-1437.0975"/>
<text text-anchor="start" x="1160" y="-1455.0975" font-family="Arial" font-weight="bold" font-size="40.00" fill="#ff0000">rpip5</text>
<polygon fill="#ffffff" stroke="transparent" points="1279,-1437.0975 1279,-1491.0975 1317,-1491.0975 1317,-1437.0975 1279,-1437.0975"/>
<polygon fill="none" stroke="#ffffff" points="1279,-1437.0975 1279,-1491.0975 1317,-1491.0975 1317,-1437.0975 1279,-1437.0975"/>
<text text-anchor="start" x="1292" y="-1454.0975" font-family="Arial" font-size="40.00" fill="#ff0000"> </text>
<polygon fill="#ffffff" stroke="transparent" points="1317,-1437.0975 1317,-1491.0975 1356,-1491.0975 1356,-1437.0975 1317,-1437.0975"/>
<polygon fill="none" stroke="#ffffff" points="1317,-1437.0975 1317,-1491.0975 1356,-1491.0975 1356,-1437.0975 1317,-1437.0975"/>
<text text-anchor="start" x="1330.5" y="-1454.0975" font-family="Arial" font-size="40.00" fill="#ff0000"> </text>
<polygon fill="#add8e6" stroke="transparent" points="1052,-1383.0975 1052,-1437.0975 1356,-1437.0975 1356,-1383.0975 1052,-1383.0975"/>
<polygon fill="none" stroke="#ffffff" points="1052,-1383.0975 1052,-1437.0975 1356,-1437.0975 1356,-1383.0975 1052,-1383.0975"/>
<text text-anchor="start" x="1057" y="-1400.0975" font-family="Arial" font-size="40.00" fill="#ff0000">IP: 192.168.8.25</text>
</g>
<!-- rpip5&#45;&#45;network -->
<g id="edge5" class="edge">
<title>rpip5&#45;&#45;network</title>
<path fill="none" stroke="#ff2200" stroke-width="6" d="M977.7706,-1193.7609C974.8452,-1192.5044 971.921,-1191.2824 969,-1190.0975 894.2057,-1159.7597 842.1036,-1216.5714 791,-1154.0975 748.5084,-1102.1518 773.0979,-916.7769 791,-852.0975 835.3433,-691.8872 964.4914,-531.369 1009.9455,-478.3416"/>
</g>
<!-- rpip6 -->
<g id="rpip6" class="node">
<title>rpip6</title>
<polygon fill="#ffffff" stroke="#ffffff" points="1252,-1154.0975 800,-1154.0975 800,-852.0975 1252,-852.0975 1252,-1154.0975"/>
<image xlink:href="img/rpibp.svg" width="452px" height="302px" preserveAspectRatio="xMinYMin meet" x="800" y="-1154.1"/>
<polygon fill="#ffffff" stroke="transparent" points="874,-1099.0975 874,-1153.0975 961,-1153.0975 961,-1099.0975 874,-1099.0975"/>
<polygon fill="none" stroke="#ffffff" points="874,-1099.0975 874,-1153.0975 961,-1153.0975 961,-1099.0975 874,-1099.0975"/>
<text text-anchor="start" x="911.5" y="-1116.0975" font-family="Arial" font-size="40.00" fill="#ff0000"> </text>
<polygon fill="#add8e6" stroke="transparent" points="961,-1099.0975 961,-1153.0975 1101,-1153.0975 1101,-1099.0975 961,-1099.0975"/>
<polygon fill="none" stroke="#ffffff" points="961,-1099.0975 961,-1153.0975 1101,-1153.0975 1101,-1099.0975 961,-1099.0975"/>
<text text-anchor="start" x="982" y="-1117.0975" font-family="Arial" font-weight="bold" font-size="40.00" fill="#ff0000">rpip6</text>
<polygon fill="#ffffff" stroke="transparent" points="1101,-1099.0975 1101,-1153.0975 1139,-1153.0975 1139,-1099.0975 1101,-1099.0975"/>
<polygon fill="none" stroke="#ffffff" points="1101,-1099.0975 1101,-1153.0975 1139,-1153.0975 1139,-1099.0975 1101,-1099.0975"/>
<text text-anchor="start" x="1114" y="-1116.0975" font-family="Arial" font-size="40.00" fill="#ff0000"> </text>
<polygon fill="#ffffff" stroke="transparent" points="1139,-1099.0975 1139,-1153.0975 1178,-1153.0975 1178,-1099.0975 1139,-1099.0975"/>
<polygon fill="none" stroke="#ffffff" points="1139,-1099.0975 1139,-1153.0975 1178,-1153.0975 1178,-1099.0975 1139,-1099.0975"/>
<text text-anchor="start" x="1152.5" y="-1116.0975" font-family="Arial" font-size="40.00" fill="#ff0000"> </text>
<polygon fill="#add8e6" stroke="transparent" points="874,-1045.0975 874,-1099.0975 1178,-1099.0975 1178,-1045.0975 874,-1045.0975"/>
<polygon fill="none" stroke="#ffffff" points="874,-1045.0975 874,-1099.0975 1178,-1099.0975 1178,-1045.0975 874,-1045.0975"/>
<text text-anchor="start" x="879" y="-1062.0975" font-family="Arial" font-size="40.00" fill="#ff0000">IP: 192.168.8.26</text>
</g>
<!-- rpip6&#45;&#45;network -->
<g id="edge6" class="edge">
<title>rpip6&#45;&#45;network</title>
<path fill="none" stroke="#ff2200" stroke-width="6" d="M1026,-851.8418C1026,-718.1599 1026,-535.7379 1026,-478.2271"/>
</g>
<!-- rpip7 -->
<g id="rpip7" class="node">
<title>rpip7</title>
<polygon fill="#ffffff" stroke="#ffffff" points="1722,-1154.0975 1270,-1154.0975 1270,-852.0975 1722,-852.0975 1722,-1154.0975"/>
<image xlink:href="img/rpibp.svg" width="452px" height="302px" preserveAspectRatio="xMinYMin meet" x="1270" y="-1154.1"/>
<polygon fill="#ffffff" stroke="transparent" points="1344,-1099.0975 1344,-1153.0975 1431,-1153.0975 1431,-1099.0975 1344,-1099.0975"/>
<polygon fill="none" stroke="#ffffff" points="1344,-1099.0975 1344,-1153.0975 1431,-1153.0975 1431,-1099.0975 1344,-1099.0975"/>
<text text-anchor="start" x="1381.5" y="-1116.0975" font-family="Arial" font-size="40.00" fill="#ff0000"> </text>
<polygon fill="#add8e6" stroke="transparent" points="1431,-1099.0975 1431,-1153.0975 1571,-1153.0975 1571,-1099.0975 1431,-1099.0975"/>
<polygon fill="none" stroke="#ffffff" points="1431,-1099.0975 1431,-1153.0975 1571,-1153.0975 1571,-1099.0975 1431,-1099.0975"/>
<text text-anchor="start" x="1452" y="-1117.0975" font-family="Arial" font-weight="bold" font-size="40.00" fill="#ff0000">rpip7</text>
<polygon fill="#ffffff" stroke="transparent" points="1571,-1099.0975 1571,-1153.0975 1609,-1153.0975 1609,-1099.0975 1571,-1099.0975"/>
<polygon fill="none" stroke="#ffffff" points="1571,-1099.0975 1571,-1153.0975 1609,-1153.0975 1609,-1099.0975 1571,-1099.0975"/>
<text text-anchor="start" x="1584" y="-1116.0975" font-family="Arial" font-size="40.00" fill="#ff0000"> </text>
<polygon fill="#ffffff" stroke="transparent" points="1609,-1099.0975 1609,-1153.0975 1648,-1153.0975 1648,-1099.0975 1609,-1099.0975"/>
<polygon fill="none" stroke="#ffffff" points="1609,-1099.0975 1609,-1153.0975 1648,-1153.0975 1648,-1099.0975 1609,-1099.0975"/>
<text text-anchor="start" x="1622.5" y="-1116.0975" font-family="Arial" font-size="40.00" fill="#ff0000"> </text>
<polygon fill="#add8e6" stroke="transparent" points="1344,-1045.0975 1344,-1099.0975 1648,-1099.0975 1648,-1045.0975 1344,-1045.0975"/>
<polygon fill="none" stroke="#ffffff" points="1344,-1045.0975 1344,-1099.0975 1648,-1099.0975 1648,-1045.0975 1344,-1045.0975"/>
<text text-anchor="start" x="1349" y="-1062.0975" font-family="Arial" font-size="40.00" fill="#ff0000">IP: 192.168.8.27</text>
</g>
<!-- rpip7&#45;&#45;network -->
<g id="edge7" class="edge">
<title>rpip7&#45;&#45;network</title>
<path fill="none" stroke="#ff2200" stroke-width="6" d="M1337.3342,-851.9564C1325.8646,-840.0039 1314.6371,-827.9648 1304,-816.0975 1193.8235,-693.1789 1076.8741,-531.7048 1038.7827,-478.1888"/>
</g>
<!-- rpip8 -->
<g id="rpip8" class="node">
<title>rpip8</title>
<polygon fill="#ffffff" stroke="#ffffff" points="2192,-1154.0975 1740,-1154.0975 1740,-852.0975 2192,-852.0975 2192,-1154.0975"/>
<image xlink:href="img/rpibp.svg" width="452px" height="302px" preserveAspectRatio="xMinYMin meet" x="1740" y="-1154.1"/>
<polygon fill="#ffffff" stroke="transparent" points="1814,-1099.0975 1814,-1153.0975 1901,-1153.0975 1901,-1099.0975 1814,-1099.0975"/>
<polygon fill="none" stroke="#ffffff" points="1814,-1099.0975 1814,-1153.0975 1901,-1153.0975 1901,-1099.0975 1814,-1099.0975"/>
<text text-anchor="start" x="1851.5" y="-1116.0975" font-family="Arial" font-size="40.00" fill="#ff0000"> </text>
<polygon fill="#add8e6" stroke="transparent" points="1901,-1099.0975 1901,-1153.0975 2041,-1153.0975 2041,-1099.0975 1901,-1099.0975"/>
<polygon fill="none" stroke="#ffffff" points="1901,-1099.0975 1901,-1153.0975 2041,-1153.0975 2041,-1099.0975 1901,-1099.0975"/>
<text text-anchor="start" x="1922" y="-1117.0975" font-family="Arial" font-weight="bold" font-size="40.00" fill="#ff0000">rpip8</text>
<polygon fill="#ffffff" stroke="transparent" points="2041,-1099.0975 2041,-1153.0975 2079,-1153.0975 2079,-1099.0975 2041,-1099.0975"/>
<polygon fill="none" stroke="#ffffff" points="2041,-1099.0975 2041,-1153.0975 2079,-1153.0975 2079,-1099.0975 2041,-1099.0975"/>
<text text-anchor="start" x="2054" y="-1116.0975" font-family="Arial" font-size="40.00" fill="#ff0000"> </text>
<polygon fill="#ffffff" stroke="transparent" points="2079,-1099.0975 2079,-1153.0975 2118,-1153.0975 2118,-1099.0975 2079,-1099.0975"/>
<polygon fill="none" stroke="#ffffff" points="2079,-1099.0975 2079,-1153.0975 2118,-1153.0975 2118,-1099.0975 2079,-1099.0975"/>
<text text-anchor="start" x="2092.5" y="-1116.0975" font-family="Arial" font-size="40.00" fill="#ff0000"> </text>
<polygon fill="#add8e6" stroke="transparent" points="1814,-1045.0975 1814,-1099.0975 2118,-1099.0975 2118,-1045.0975 1814,-1045.0975"/>
<polygon fill="none" stroke="#ffffff" points="1814,-1045.0975 1814,-1099.0975 2118,-1099.0975 2118,-1045.0975 1814,-1045.0975"/>
<text text-anchor="start" x="1819" y="-1062.0975" font-family="Arial" font-size="40.00" fill="#ff0000">IP: 192.168.8.28</text>
</g>
<!-- rpip8&#45;&#45;network -->
<g id="edge8" class="edge">
<title>rpip8&#45;&#45;network</title>
<path fill="none" stroke="#ff2200" stroke-width="6" d="M1739.9413,-855.3048C1736.962,-854.1924 1733.9809,-853.1223 1731,-852.0975 1647.8557,-823.5145 1408.7273,-866.942 1337,-816.0975 1216.6077,-730.7565 1309.7147,-611.6662 1199,-514.0975 1157.1001,-477.1728 1090.1343,-465.4919 1053.0052,-461.8003"/>
</g>
<!-- rpip9 -->
<g id="rpip9" class="node">
<title>rpip9</title>
<polygon fill="#ffffff" stroke="#ffffff" points="1798,-816.0975 1346,-816.0975 1346,-514.0975 1798,-514.0975 1798,-816.0975"/>
<image xlink:href="img/rpibp.svg" width="452px" height="302px" preserveAspectRatio="xMinYMin meet" x="1346" y="-816.098"/>
<polygon fill="#ffffff" stroke="transparent" points="1420,-761.0975 1420,-815.0975 1507,-815.0975 1507,-761.0975 1420,-761.0975"/>
<polygon fill="none" stroke="#ffffff" points="1420,-761.0975 1420,-815.0975 1507,-815.0975 1507,-761.0975 1420,-761.0975"/>
<text text-anchor="start" x="1457.5" y="-778.0975" font-family="Arial" font-size="40.00" fill="#ff0000"> </text>
<polygon fill="#add8e6" stroke="transparent" points="1507,-761.0975 1507,-815.0975 1647,-815.0975 1647,-761.0975 1507,-761.0975"/>
<polygon fill="none" stroke="#ffffff" points="1507,-761.0975 1507,-815.0975 1647,-815.0975 1647,-761.0975 1507,-761.0975"/>
<text text-anchor="start" x="1528" y="-779.0975" font-family="Arial" font-weight="bold" font-size="40.00" fill="#ff0000">rpip9</text>
<polygon fill="#ffffff" stroke="transparent" points="1647,-761.0975 1647,-815.0975 1685,-815.0975 1685,-761.0975 1647,-761.0975"/>
<polygon fill="none" stroke="#ffffff" points="1647,-761.0975 1647,-815.0975 1685,-815.0975 1685,-761.0975 1647,-761.0975"/>
<text text-anchor="start" x="1660" y="-778.0975" font-family="Arial" font-size="40.00" fill="#ff0000"> </text>
<polygon fill="#ffffff" stroke="transparent" points="1685,-761.0975 1685,-815.0975 1724,-815.0975 1724,-761.0975 1685,-761.0975"/>
<polygon fill="none" stroke="#ffffff" points="1685,-761.0975 1685,-815.0975 1724,-815.0975 1724,-761.0975 1685,-761.0975"/>
<text text-anchor="start" x="1698.5" y="-778.0975" font-family="Arial" font-size="40.00" fill="#ff0000"> </text>
<polygon fill="#add8e6" stroke="transparent" points="1420,-707.0975 1420,-761.0975 1724,-761.0975 1724,-707.0975 1420,-707.0975"/>
<polygon fill="none" stroke="#ffffff" points="1420,-707.0975 1420,-761.0975 1724,-761.0975 1724,-707.0975 1420,-707.0975"/>
<text text-anchor="start" x="1425" y="-724.0975" font-family="Arial" font-size="40.00" fill="#ff0000">IP: 192.168.8.29</text>
</g>
<!-- rpip9&#45;&#45;network -->
<g id="edge9" class="edge">
<title>rpip9&#45;&#45;network</title>
<path fill="none" stroke="#ff2200" stroke-width="6" d="M1345.7934,-519.6784C1341.1933,-517.7327 1336.5929,-515.8691 1332,-514.0975 1233.8534,-476.241 1107.6811,-464.7249 1053.1247,-461.3862"/>
</g>
<!-- rpip10 -->
<g id="rpip10" class="node">
<title>rpip10</title>
<polygon fill="#ffffff" stroke="#ffffff" points="2268,-816.0975 1816,-816.0975 1816,-514.0975 2268,-514.0975 2268,-816.0975"/>
<image xlink:href="img/rpibp.svg" width="452px" height="302px" preserveAspectRatio="xMinYMin meet" x="1816" y="-816.098"/>
<polygon fill="#ffffff" stroke="transparent" points="1890,-761.0975 1890,-815.0975 1965,-815.0975 1965,-761.0975 1890,-761.0975"/>
<polygon fill="none" stroke="#ffffff" points="1890,-761.0975 1890,-815.0975 1965,-815.0975 1965,-761.0975 1890,-761.0975"/>
<text text-anchor="start" x="1921.5" y="-778.0975" font-family="Arial" font-size="40.00" fill="#ff0000"> </text>
<polygon fill="#add8e6" stroke="transparent" points="1965,-761.0975 1965,-815.0975 2123,-815.0975 2123,-761.0975 1965,-761.0975"/>
<polygon fill="none" stroke="#ffffff" points="1965,-761.0975 1965,-815.0975 2123,-815.0975 2123,-761.0975 1965,-761.0975"/>
<text text-anchor="start" x="1983.5" y="-779.0975" font-family="Arial" font-weight="bold" font-size="40.00" fill="#ff0000">rpip10</text>
<polygon fill="#ffffff" stroke="transparent" points="2123,-761.0975 2123,-815.0975 2158,-815.0975 2158,-761.0975 2123,-761.0975"/>
<polygon fill="none" stroke="#ffffff" points="2123,-761.0975 2123,-815.0975 2158,-815.0975 2158,-761.0975 2123,-761.0975"/>
<text text-anchor="start" x="2134.5" y="-778.0975" font-family="Arial" font-size="40.00" fill="#ff0000"> </text>
<polygon fill="#ffffff" stroke="transparent" points="2158,-761.0975 2158,-815.0975 2194,-815.0975 2194,-761.0975 2158,-761.0975"/>
<polygon fill="none" stroke="#ffffff" points="2158,-761.0975 2158,-815.0975 2194,-815.0975 2194,-761.0975 2158,-761.0975"/>
<text text-anchor="start" x="2170" y="-778.0975" font-family="Arial" font-size="40.00" fill="#ff0000"> </text>
<polygon fill="#add8e6" stroke="transparent" points="1890,-707.0975 1890,-761.0975 2194,-761.0975 2194,-707.0975 1890,-707.0975"/>
<polygon fill="none" stroke="#ffffff" points="1890,-707.0975 1890,-761.0975 2194,-761.0975 2194,-707.0975 1890,-707.0975"/>
<text text-anchor="start" x="1895" y="-724.0975" font-family="Arial" font-size="40.00" fill="#ff0000">IP: 192.168.8.30</text>
</g>
<!-- rpip10&#45;&#45;network -->
<g id="edge10" class="edge">
<title>rpip10&#45;&#45;network</title>
<path fill="none" stroke="#ff2200" stroke-width="6" d="M1815.973,-517.2109C1812.9837,-516.1281 1809.9921,-515.0893 1807,-514.0975 1734.1894,-489.9626 1182.4602,-466.4015 1053.0877,-461.1704"/>
</g>
<!-- broker -->
<g id="broker" class="node">
<title>broker</title>
<ellipse fill="#add8e6" stroke="#add8e6" cx="1026" cy="-242.0488" rx="150.7276" ry="150.7276"/>
<image xlink:href="img/servers.png" width="128px" height="128px" preserveAspectRatio="xMinYMin meet" x="962" y="-306.049"/>
<polygon fill="#add8e6" stroke="transparent" points="928,-168.4594 928,-222.4594 1125,-222.4594 1125,-168.4594 928,-168.4594"/>
<polygon fill="none" stroke="#add8e6" points="928,-168.4594 928,-222.4594 1125,-222.4594 1125,-168.4594 928,-168.4594"/>
<text text-anchor="start" x="962" y="-186.4594" font-family="Arial" font-weight="bold" font-size="40.00" fill="#000000">Broker</text>
<polygon fill="#add8e6" stroke="transparent" points="928,-114.4594 928,-168.4594 1081,-168.4594 1081,-114.4594 928,-114.4594"/>
<polygon fill="none" stroke="#add8e6" points="928,-114.4594 928,-168.4594 1081,-168.4594 1081,-114.4594 928,-114.4594"/>
<text text-anchor="start" x="933" y="-131.4594" font-family="Arial" font-size="40.00" fill="#000000"> Active: </text>
<polygon fill="#ffffff" stroke="transparent" points="1081,-114.4594 1081,-168.4594 1125,-168.4594 1125,-114.4594 1081,-114.4594"/>
<polygon fill="none" stroke="#add8e6" points="1081,-114.4594 1081,-168.4594 1125,-168.4594 1125,-114.4594 1081,-114.4594"/>
<text text-anchor="start" x="1086" y="-132.4594" font-family="Arial" font-weight="bold" font-size="40.00" fill="#000000"> 0</text>
</g>
<!-- network&#45;&#45;broker -->
<g id="edge2" class="edge">
<title>network&#45;&#45;broker</title>
<path fill="none" stroke="#ff2200" stroke-width="6" d="M1026,-441.8819C1026,-429.7016 1026,-412.3883 1026,-392.986"/>
</g>
<!-- cloud -->
<g id="cloud" class="node">
<title>cloud</title>
<ellipse fill="#ffffff" stroke="#ffffff" cx="1430" cy="-242.0488" rx="164.0976" ry="164.0976"/>
<image xlink:href="img/cloud.png" width="64px" height="60px" preserveAspectRatio="xMinYMin meet" x="1398" y="-272.049"/>
<text text-anchor="middle" x="1430" y="-100.7696" font-family="Arial" font-size="40.00" fill="#000000">The Internet</text>
</g>
<!-- broker&#45;&#45;cloud -->
<g id="edge1" class="edge">
<title>broker&#45;&#45;cloud</title>
<path fill="none" stroke="#0022ff" stroke-width="6" d="M1176.7109,-242.0488C1206.3932,-242.0488 1236.0756,-242.0488 1265.7579,-242.0488"/>
</g>
</g>
</svg>
