<?xml version="1.0" encoding="UTF-8" standalone="no"?>
<!DOCTYPE svg PUBLIC "-//W3C//DTD SVG 1.1//EN"
 "http://www.w3.org/Graphics/SVG/1.1/DTD/svg11.dtd">
<!-- Generated by graphviz version 2.40.1 (20161225.0304)
 -->
<!-- Title: demotopo Pages: 1 -->
<svg width="2276pt" height="1523pt"
 viewBox="0.00 0.00 2276.00 1522.72" xmlns="http://www.w3.org/2000/svg" xmlns:xlink="http://www.w3.org/1999/xlink">
<g id="graph0" class="graph" transform="scale(1 1) rotate(0) translate(4 1518.725)">
<title>demotopo</title>
<polygon fill="#ffffff" stroke="transparent" points="-4,4 -4,-1518.725 2272,-1518.725 2272,4 -4,4"/>
<text text-anchor="middle" x="1134" y="-22.8" font-family="Arial" font-size="64.00" fill="#000000">IoT Dashboard</text>
<!-- rpit5 -->
<g id="rpit5" class="node">
<title>rpit5</title>
<polygon fill="#ffffff" stroke="#ffffff" points="452,-838.725 0,-838.725 0,-536.725 452,-536.725 452,-838.725"/>
<image xlink:href="img/rpibp.svg" width="452px" height="302px" preserveAspectRatio="xMinYMin meet" x="0" y="-838.725"/>
<polygon fill="#add8e6" stroke="transparent" points="45,-774.725 45,-837.725 182,-837.725 182,-774.725 45,-774.725"/>
<polygon fill="none" stroke="#ffffff" points="45,-774.725 45,-837.725 182,-837.725 182,-774.725 45,-774.725"/>
<text text-anchor="start" x="66.5" y="-794.325" font-family="Arial" font-size="48.00" fill="#ff0000">rpit5</text>
<polygon fill="#ffffff" stroke="transparent" points="182,-774.725 182,-837.725 343,-837.725 343,-774.725 182,-774.725"/>
<polygon fill="none" stroke="#000000" points="182,-774.725 182,-837.725 343,-837.725 343,-774.725 182,-774.725"/>
<text text-anchor="start" x="187" y="-794.325" font-family="Arial" font-size="48.00" fill="#ff0000">          </text>
<polygon fill="#ffffff" stroke="transparent" points="343,-774.725 343,-837.725 375,-837.725 375,-774.725 343,-774.725"/>
<polygon fill="none" stroke="#ffffff" points="343,-774.725 343,-837.725 375,-837.725 375,-774.725 343,-774.725"/>
<text text-anchor="start" x="352" y="-794.325" font-family="Arial" font-size="48.00" fill="#ff0000"> </text>
<polygon fill="#ffffff" stroke="transparent" points="375,-774.725 375,-837.725 408,-837.725 408,-774.725 375,-774.725"/>
<polygon fill="none" stroke="#ffffff" points="375,-774.725 375,-837.725 408,-837.725 408,-774.725 375,-774.725"/>
<text text-anchor="start" x="384.5" y="-794.325" font-family="Arial" font-size="48.00" fill="#ff0000"> </text>
<polygon fill="#add8e6" stroke="transparent" points="45,-711.725 45,-774.725 408,-774.725 408,-711.725 45,-711.725"/>
<polygon fill="none" stroke="#ffffff" points="45,-711.725 45,-774.725 408,-774.725 408,-711.725 45,-711.725"/>
<text text-anchor="start" x="50" y="-731.325" font-family="Arial" font-size="48.00" fill="#ff0000">IP: 192.168.8.22</text>
</g>
<!-- network -->
<g id="network" class="node">
<title>network</title>
<polygon fill="#ff2200" stroke="#ff2200" points="1053,-500.725 999,-500.725 999,-464.725 1053,-464.725 1053,-500.725"/>
</g>
<!-- rpit5&#45;&#45;network -->
<g id="rpit5_to_network" class="edge">
<title>rpit5&#45;&#45;network</title>
<path fill="none" stroke="#ff2200" stroke-width="6" d="M452.0237,-541.8025C456.6799,-540.0109 461.3411,-538.3148 466,-536.725 566.6429,-502.3803 901.2329,-487.393 998.971,-483.6811"/>
</g>
<!-- rpit3 -->
<g id="rpit3" class="node">
<title>rpit3</title>
<polygon fill="#ffffff" stroke="#ffffff" points="490,-1514.725 38,-1514.725 38,-1212.725 490,-1212.725 490,-1514.725"/>
<image xlink:href="img/rpibp.svg" width="452px" height="302px" preserveAspectRatio="xMinYMin meet" x="38" y="-1514.72"/>
<polygon fill="#add8e6" stroke="transparent" points="83,-1450.725 83,-1513.725 220,-1513.725 220,-1450.725 83,-1450.725"/>
<polygon fill="none" stroke="#ffffff" points="83,-1450.725 83,-1513.725 220,-1513.725 220,-1450.725 83,-1450.725"/>
<text text-anchor="start" x="104.5" y="-1470.325" font-family="Arial" font-size="48.00" fill="#ff0000">rpit3</text>
<polygon fill="#ffffff" stroke="transparent" points="220,-1450.725 220,-1513.725 381,-1513.725 381,-1450.725 220,-1450.725"/>
<polygon fill="none" stroke="#000000" points="220,-1450.725 220,-1513.725 381,-1513.725 381,-1450.725 220,-1450.725"/>
<text text-anchor="start" x="225" y="-1470.325" font-family="Arial" font-size="48.00" fill="#ff0000">          </text>
<polygon fill="#ffffff" stroke="transparent" points="381,-1450.725 381,-1513.725 413,-1513.725 413,-1450.725 381,-1450.725"/>
<polygon fill="none" stroke="#ffffff" points="381,-1450.725 381,-1513.725 413,-1513.725 413,-1450.725 381,-1450.725"/>
<text text-anchor="start" x="390" y="-1470.325" font-family="Arial" font-size="48.00" fill="#ff0000"> </text>
<polygon fill="#ffffff" stroke="transparent" points="413,-1450.725 413,-1513.725 446,-1513.725 446,-1450.725 413,-1450.725"/>
<polygon fill="none" stroke="#ffffff" points="413,-1450.725 413,-1513.725 446,-1513.725 446,-1450.725 413,-1450.725"/>
<text text-anchor="start" x="422.5" y="-1470.325" font-family="Arial" font-size="48.00" fill="#ff0000"> </text>
<polygon fill="#add8e6" stroke="transparent" points="83,-1387.725 83,-1450.725 446,-1450.725 446,-1387.725 83,-1387.725"/>
<polygon fill="none" stroke="#ffffff" points="83,-1387.725 83,-1450.725 446,-1450.725 446,-1387.725 83,-1387.725"/>
<text text-anchor="start" x="88" y="-1407.325" font-family="Arial" font-size="48.00" fill="#ff0000">IP: 192.168.8.23</text>
</g>
<!-- rpit3&#45;&#45;network -->
<g id="rpit3_to_network" class="edge">
<title>rpit3&#45;&#45;network</title>
<path fill="none" stroke="#ff2200" stroke-width="6" d="M319.8641,-1212.6393C402.225,-998.2208 559.0957,-622.1121 676,-536.725 727.5733,-499.0557 925.9403,-486.9626 998.8833,-483.7422"/>
</g>
<!-- rpit4 -->
<g id="rpit4" class="node">
<title>rpit4</title>
<polygon fill="#ffffff" stroke="#ffffff" points="960,-1514.725 508,-1514.725 508,-1212.725 960,-1212.725 960,-1514.725"/>
<image xlink:href="img/rpibp.svg" width="452px" height="302px" preserveAspectRatio="xMinYMin meet" x="508" y="-1514.72"/>
<polygon fill="#add8e6" stroke="transparent" points="553,-1450.725 553,-1513.725 690,-1513.725 690,-1450.725 553,-1450.725"/>
<polygon fill="none" stroke="#ffffff" points="553,-1450.725 553,-1513.725 690,-1513.725 690,-1450.725 553,-1450.725"/>
<text text-anchor="start" x="574.5" y="-1470.325" font-family="Arial" font-size="48.00" fill="#ff0000">rpit4</text>
<polygon fill="#ffffff" stroke="transparent" points="690,-1450.725 690,-1513.725 851,-1513.725 851,-1450.725 690,-1450.725"/>
<polygon fill="none" stroke="#000000" points="690,-1450.725 690,-1513.725 851,-1513.725 851,-1450.725 690,-1450.725"/>
<text text-anchor="start" x="695" y="-1470.325" font-family="Arial" font-size="48.00" fill="#ff0000">          </text>
<polygon fill="#ffffff" stroke="transparent" points="851,-1450.725 851,-1513.725 883,-1513.725 883,-1450.725 851,-1450.725"/>
<polygon fill="none" stroke="#ffffff" points="851,-1450.725 851,-1513.725 883,-1513.725 883,-1450.725 851,-1450.725"/>
<text text-anchor="start" x="860" y="-1470.325" font-family="Arial" font-size="48.00" fill="#ff0000"> </text>
<polygon fill="#ffffff" stroke="transparent" points="883,-1450.725 883,-1513.725 916,-1513.725 916,-1450.725 883,-1450.725"/>
<polygon fill="none" stroke="#ffffff" points="883,-1450.725 883,-1513.725 916,-1513.725 916,-1450.725 883,-1450.725"/>
<text text-anchor="start" x="892.5" y="-1470.325" font-family="Arial" font-size="48.00" fill="#ff0000"> </text>
<polygon fill="#add8e6" stroke="transparent" points="553,-1387.725 553,-1450.725 916,-1450.725 916,-1387.725 553,-1387.725"/>
<polygon fill="none" stroke="#ffffff" points="553,-1387.725 553,-1450.725 916,-1450.725 916,-1387.725 553,-1387.725"/>
<text text-anchor="start" x="558" y="-1407.325" font-family="Arial" font-size="48.00" fill="#ff0000">IP: 192.168.8.24</text>
</g>
<!-- rpit4&#45;&#45;network -->
<g id="rpit4_to_network" class="edge">
<title>rpit4&#45;&#45;network</title>
<path fill="none" stroke="#ff2200" stroke-width="6" d="M697.5564,-1212.6873C663.0587,-1029.3583 637.946,-721.8316 801,-536.725 826.9558,-507.2587 944.487,-491.305 998.5892,-485.4102"/>
</g>
<!-- rpip5 -->
<g id="rpip5" class="node">
<title>rpip5</title>
<polygon fill="#ffffff" stroke="#ffffff" points="1430,-1514.725 978,-1514.725 978,-1212.725 1430,-1212.725 1430,-1514.725"/>
<image xlink:href="img/rpibp.svg" width="452px" height="302px" preserveAspectRatio="xMinYMin meet" x="978" y="-1514.72"/>
<polygon fill="#add8e6" stroke="transparent" points="1023,-1450.725 1023,-1513.725 1167,-1513.725 1167,-1450.725 1023,-1450.725"/>
<polygon fill="none" stroke="#ffffff" points="1023,-1450.725 1023,-1513.725 1167,-1513.725 1167,-1450.725 1023,-1450.725"/>
<text text-anchor="start" x="1041.5" y="-1470.325" font-family="Arial" font-size="48.00" fill="#ff0000">rpip5</text>
<polygon fill="#ffffff" stroke="transparent" points="1167,-1450.725 1167,-1513.725 1324,-1513.725 1324,-1450.725 1167,-1450.725"/>
<polygon fill="none" stroke="#000000" points="1167,-1450.725 1167,-1513.725 1324,-1513.725 1324,-1450.725 1167,-1450.725"/>
<text text-anchor="start" x="1172" y="-1470.325" font-family="Arial" font-size="48.00" fill="#ff0000">          </text>
<polygon fill="#ffffff" stroke="transparent" points="1324,-1450.725 1324,-1513.725 1355,-1513.725 1355,-1450.725 1324,-1450.725"/>
<polygon fill="none" stroke="#ffffff" points="1324,-1450.725 1324,-1513.725 1355,-1513.725 1355,-1450.725 1324,-1450.725"/>
<text text-anchor="start" x="1332.5" y="-1470.325" font-family="Arial" font-size="48.00" fill="#ff0000"> </text>
<polygon fill="#ffffff" stroke="transparent" points="1355,-1450.725 1355,-1513.725 1386,-1513.725 1386,-1450.725 1355,-1450.725"/>
<polygon fill="none" stroke="#ffffff" points="1355,-1450.725 1355,-1513.725 1386,-1513.725 1386,-1450.725 1355,-1450.725"/>
<text text-anchor="start" x="1363.5" y="-1470.325" font-family="Arial" font-size="48.00" fill="#ff0000"> </text>
<polygon fill="#add8e6" stroke="transparent" points="1023,-1387.725 1023,-1450.725 1386,-1450.725 1386,-1387.725 1023,-1387.725"/>
<polygon fill="none" stroke="#ffffff" points="1023,-1387.725 1023,-1450.725 1386,-1450.725 1386,-1387.725 1023,-1387.725"/>
<text text-anchor="start" x="1028" y="-1407.325" font-family="Arial" font-size="48.00" fill="#ff0000">IP: 192.168.8.25</text>
</g>
<!-- rpip5&#45;&#45;network -->
<g id="rpip5_to_network" class="edge">
<title>rpip5&#45;&#45;network</title>
<path fill="none" stroke="#ff2200" stroke-width="6" d="M977.7706,-1216.3883C974.8452,-1215.1318 971.921,-1213.9098 969,-1212.725 894.2057,-1182.3872 842.1036,-1239.1989 791,-1176.725 748.5084,-1124.7792 773.0979,-939.4043 791,-874.725 835.3433,-714.5146 964.4914,-553.9964 1009.9455,-500.969"/>
</g>
<!-- rpip6 -->
<g id="rpip6" class="node">
<title>rpip6</title>
<polygon fill="#ffffff" stroke="#ffffff" points="1252,-1176.725 800,-1176.725 800,-874.725 1252,-874.725 1252,-1176.725"/>
<image xlink:href="img/rpibp.svg" width="452px" height="302px" preserveAspectRatio="xMinYMin meet" x="800" y="-1176.72"/>
<polygon fill="#add8e6" stroke="transparent" points="845,-1112.725 845,-1175.725 989,-1175.725 989,-1112.725 845,-1112.725"/>
<polygon fill="none" stroke="#ffffff" points="845,-1112.725 845,-1175.725 989,-1175.725 989,-1112.725 845,-1112.725"/>
<text text-anchor="start" x="863.5" y="-1132.325" font-family="Arial" font-size="48.00" fill="#ff0000">rpip6</text>
<polygon fill="#ffffff" stroke="transparent" points="989,-1112.725 989,-1175.725 1146,-1175.725 1146,-1112.725 989,-1112.725"/>
<polygon fill="none" stroke="#000000" points="989,-1112.725 989,-1175.725 1146,-1175.725 1146,-1112.725 989,-1112.725"/>
<text text-anchor="start" x="994" y="-1132.325" font-family="Arial" font-size="48.00" fill="#ff0000">          </text>
<polygon fill="#ffffff" stroke="transparent" points="1146,-1112.725 1146,-1175.725 1177,-1175.725 1177,-1112.725 1146,-1112.725"/>
<polygon fill="none" stroke="#ffffff" points="1146,-1112.725 1146,-1175.725 1177,-1175.725 1177,-1112.725 1146,-1112.725"/>
<text text-anchor="start" x="1154.5" y="-1132.325" font-family="Arial" font-size="48.00" fill="#ff0000"> </text>
<polygon fill="#ffffff" stroke="transparent" points="1177,-1112.725 1177,-1175.725 1208,-1175.725 1208,-1112.725 1177,-1112.725"/>
<polygon fill="none" stroke="#ffffff" points="1177,-1112.725 1177,-1175.725 1208,-1175.725 1208,-1112.725 1177,-1112.725"/>
<text text-anchor="start" x="1185.5" y="-1132.325" font-family="Arial" font-size="48.00" fill="#ff0000"> </text>
<polygon fill="#add8e6" stroke="transparent" points="845,-1049.725 845,-1112.725 1208,-1112.725 1208,-1049.725 845,-1049.725"/>
<polygon fill="none" stroke="#ffffff" points="845,-1049.725 845,-1112.725 1208,-1112.725 1208,-1049.725 845,-1049.725"/>
<text text-anchor="start" x="850" y="-1069.325" font-family="Arial" font-size="48.00" fill="#ff0000">IP: 192.168.8.26</text>
</g>
<!-- rpip6&#45;&#45;network -->
<g id="rpip6_to_network" class="edge">
<title>rpip6&#45;&#45;network</title>
<path fill="none" stroke="#ff2200" stroke-width="6" d="M1026,-874.4692C1026,-740.7873 1026,-558.3653 1026,-500.8545"/>
</g>
<!-- rpip7 -->
<g id="rpip7" class="node">
<title>rpip7</title>
<polygon fill="#ffffff" stroke="#ffffff" points="1722,-1176.725 1270,-1176.725 1270,-874.725 1722,-874.725 1722,-1176.725"/>
<image xlink:href="img/rpibp.svg" width="452px" height="302px" preserveAspectRatio="xMinYMin meet" x="1270" y="-1176.72"/>
<polygon fill="#add8e6" stroke="transparent" points="1315,-1112.725 1315,-1175.725 1459,-1175.725 1459,-1112.725 1315,-1112.725"/>
<polygon fill="none" stroke="#ffffff" points="1315,-1112.725 1315,-1175.725 1459,-1175.725 1459,-1112.725 1315,-1112.725"/>
<text text-anchor="start" x="1333.5" y="-1132.325" font-family="Arial" font-size="48.00" fill="#ff0000">rpip7</text>
<polygon fill="#ffffff" stroke="transparent" points="1459,-1112.725 1459,-1175.725 1616,-1175.725 1616,-1112.725 1459,-1112.725"/>
<polygon fill="none" stroke="#000000" points="1459,-1112.725 1459,-1175.725 1616,-1175.725 1616,-1112.725 1459,-1112.725"/>
<text text-anchor="start" x="1464" y="-1132.325" font-family="Arial" font-size="48.00" fill="#ff0000">          </text>
<polygon fill="#ffffff" stroke="transparent" points="1616,-1112.725 1616,-1175.725 1647,-1175.725 1647,-1112.725 1616,-1112.725"/>
<polygon fill="none" stroke="#ffffff" points="1616,-1112.725 1616,-1175.725 1647,-1175.725 1647,-1112.725 1616,-1112.725"/>
<text text-anchor="start" x="1624.5" y="-1132.325" font-family="Arial" font-size="48.00" fill="#ff0000"> </text>
<polygon fill="#ffffff" stroke="transparent" points="1647,-1112.725 1647,-1175.725 1678,-1175.725 1678,-1112.725 1647,-1112.725"/>
<polygon fill="none" stroke="#ffffff" points="1647,-1112.725 1647,-1175.725 1678,-1175.725 1678,-1112.725 1647,-1112.725"/>
<text text-anchor="start" x="1655.5" y="-1132.325" font-family="Arial" font-size="48.00" fill="#ff0000"> </text>
<polygon fill="#add8e6" stroke="transparent" points="1315,-1049.725 1315,-1112.725 1678,-1112.725 1678,-1049.725 1315,-1049.725"/>
<polygon fill="none" stroke="#ffffff" points="1315,-1049.725 1315,-1112.725 1678,-1112.725 1678,-1049.725 1315,-1049.725"/>
<text text-anchor="start" x="1320" y="-1069.325" font-family="Arial" font-size="48.00" fill="#ff0000">IP: 192.168.8.27</text>
</g>
<!-- rpip7&#45;&#45;network -->
<g id="rpip7_to_network" class="edge">
<title>rpip7&#45;&#45;network</title>
<path fill="none" stroke="#ff2200" stroke-width="6" d="M1337.3342,-874.5838C1325.8646,-862.6313 1314.6371,-850.5923 1304,-838.725 1193.8235,-715.8064 1076.8741,-554.3323 1038.7827,-500.8162"/>
</g>
<!-- rpip8 -->
<g id="rpip8" class="node">
<title>rpip8</title>
<polygon fill="#ffffff" stroke="#ffffff" points="2192,-1176.725 1740,-1176.725 1740,-874.725 2192,-874.725 2192,-1176.725"/>
<image xlink:href="img/rpibp.svg" width="452px" height="302px" preserveAspectRatio="xMinYMin meet" x="1740" y="-1176.72"/>
<polygon fill="#add8e6" stroke="transparent" points="1785,-1112.725 1785,-1175.725 1929,-1175.725 1929,-1112.725 1785,-1112.725"/>
<polygon fill="none" stroke="#ffffff" points="1785,-1112.725 1785,-1175.725 1929,-1175.725 1929,-1112.725 1785,-1112.725"/>
<text text-anchor="start" x="1803.5" y="-1132.325" font-family="Arial" font-size="48.00" fill="#ff0000">rpip8</text>
<polygon fill="#ffffff" stroke="transparent" points="1929,-1112.725 1929,-1175.725 2086,-1175.725 2086,-1112.725 1929,-1112.725"/>
<polygon fill="none" stroke="#000000" points="1929,-1112.725 1929,-1175.725 2086,-1175.725 2086,-1112.725 1929,-1112.725"/>
<text text-anchor="start" x="1934" y="-1132.325" font-family="Arial" font-size="48.00" fill="#ff0000">          </text>
<polygon fill="#ffffff" stroke="transparent" points="2086,-1112.725 2086,-1175.725 2117,-1175.725 2117,-1112.725 2086,-1112.725"/>
<polygon fill="none" stroke="#ffffff" points="2086,-1112.725 2086,-1175.725 2117,-1175.725 2117,-1112.725 2086,-1112.725"/>
<text text-anchor="start" x="2094.5" y="-1132.325" font-family="Arial" font-size="48.00" fill="#ff0000"> </text>
<polygon fill="#ffffff" stroke="transparent" points="2117,-1112.725 2117,-1175.725 2148,-1175.725 2148,-1112.725 2117,-1112.725"/>
<polygon fill="none" stroke="#ffffff" points="2117,-1112.725 2117,-1175.725 2148,-1175.725 2148,-1112.725 2117,-1112.725"/>
<text text-anchor="start" x="2125.5" y="-1132.325" font-family="Arial" font-size="48.00" fill="#ff0000"> </text>
<polygon fill="#add8e6" stroke="transparent" points="1785,-1049.725 1785,-1112.725 2148,-1112.725 2148,-1049.725 1785,-1049.725"/>
<polygon fill="none" stroke="#ffffff" points="1785,-1049.725 1785,-1112.725 2148,-1112.725 2148,-1049.725 1785,-1049.725"/>
<text text-anchor="start" x="1790" y="-1069.325" font-family="Arial" font-size="48.00" fill="#ff0000">IP: 192.168.8.28</text>
</g>
<!-- rpip8&#45;&#45;network -->
<g id="rpip8_to_network" class="edge">
<title>rpip8&#45;&#45;network</title>
<path fill="none" stroke="#ff2200" stroke-width="6" d="M1739.9413,-877.9323C1736.962,-876.8198 1733.9809,-875.7497 1731,-874.725 1647.8557,-846.1419 1408.7968,-889.4713 1337,-838.725 1216.3398,-753.4418 1308.9066,-634.356 1198,-536.725 1156.4183,-500.1206 1090.113,-488.3189 1053.15,-484.5209"/>
</g>
<!-- rpip9 -->
<g id="rpip9" class="node">
<title>rpip9</title>
<polygon fill="#ffffff" stroke="#ffffff" points="1798,-838.725 1346,-838.725 1346,-536.725 1798,-536.725 1798,-838.725"/>
<image xlink:href="img/rpibp.svg" width="452px" height="302px" preserveAspectRatio="xMinYMin meet" x="1346" y="-838.725"/>
<polygon fill="#add8e6" stroke="transparent" points="1391,-774.725 1391,-837.725 1535,-837.725 1535,-774.725 1391,-774.725"/>
<polygon fill="none" stroke="#ffffff" points="1391,-774.725 1391,-837.725 1535,-837.725 1535,-774.725 1391,-774.725"/>
<text text-anchor="start" x="1409.5" y="-794.325" font-family="Arial" font-size="48.00" fill="#ff0000">rpip9</text>
<polygon fill="#ffffff" stroke="transparent" points="1535,-774.725 1535,-837.725 1692,-837.725 1692,-774.725 1535,-774.725"/>
<polygon fill="none" stroke="#000000" points="1535,-774.725 1535,-837.725 1692,-837.725 1692,-774.725 1535,-774.725"/>
<text text-anchor="start" x="1540" y="-794.325" font-family="Arial" font-size="48.00" fill="#ff0000">          </text>
<polygon fill="#ffffff" stroke="transparent" points="1692,-774.725 1692,-837.725 1723,-837.725 1723,-774.725 1692,-774.725"/>
<polygon fill="none" stroke="#ffffff" points="1692,-774.725 1692,-837.725 1723,-837.725 1723,-774.725 1692,-774.725"/>
<text text-anchor="start" x="1700.5" y="-794.325" font-family="Arial" font-size="48.00" fill="#ff0000"> </text>
<polygon fill="#ffffff" stroke="transparent" points="1723,-774.725 1723,-837.725 1754,-837.725 1754,-774.725 1723,-774.725"/>
<polygon fill="none" stroke="#ffffff" points="1723,-774.725 1723,-837.725 1754,-837.725 1754,-774.725 1723,-774.725"/>
<text text-anchor="start" x="1731.5" y="-794.325" font-family="Arial" font-size="48.00" fill="#ff0000"> </text>
<polygon fill="#add8e6" stroke="transparent" points="1391,-711.725 1391,-774.725 1754,-774.725 1754,-711.725 1391,-711.725"/>
<polygon fill="none" stroke="#ffffff" points="1391,-711.725 1391,-774.725 1754,-774.725 1754,-711.725 1391,-711.725"/>
<text text-anchor="start" x="1396" y="-731.325" font-family="Arial" font-size="48.00" fill="#ff0000">IP: 192.168.8.29</text>
</g>
<!-- rpip9&#45;&#45;network -->
<g id="rpip9_to_network" class="edge">
<title>rpip9&#45;&#45;network</title>
<path fill="none" stroke="#ff2200" stroke-width="6" d="M1345.7934,-542.3058C1341.1933,-540.3601 1336.5929,-538.4965 1332,-536.725 1233.8534,-498.8684 1107.6811,-487.3523 1053.1247,-484.0136"/>
</g>
<!-- rpip10 -->
<g id="rpip10" class="node">
<title>rpip10</title>
<polygon fill="#ffffff" stroke="#ffffff" points="2268,-838.725 1816,-838.725 1816,-536.725 2268,-536.725 2268,-838.725"/>
<image xlink:href="img/rpibp.svg" width="452px" height="302px" preserveAspectRatio="xMinYMin meet" x="1816" y="-838.725"/>
<polygon fill="#add8e6" stroke="transparent" points="1861,-774.725 1861,-837.725 2018,-837.725 2018,-774.725 1861,-774.725"/>
<polygon fill="none" stroke="#ffffff" points="1861,-774.725 1861,-837.725 2018,-837.725 2018,-774.725 1861,-774.725"/>
<text text-anchor="start" x="1872.5" y="-794.325" font-family="Arial" font-size="48.00" fill="#ff0000">rpip10</text>
<polygon fill="#ffffff" stroke="transparent" points="2018,-774.725 2018,-837.725 2169,-837.725 2169,-774.725 2018,-774.725"/>
<polygon fill="none" stroke="#000000" points="2018,-774.725 2018,-837.725 2169,-837.725 2169,-774.725 2018,-774.725"/>
<text text-anchor="start" x="2023" y="-794.325" font-family="Arial" font-size="48.00" fill="#ff0000">          </text>
<polygon fill="#ffffff" stroke="transparent" points="2169,-774.725 2169,-837.725 2196,-837.725 2196,-774.725 2169,-774.725"/>
<polygon fill="none" stroke="#ffffff" points="2169,-774.725 2169,-837.725 2196,-837.725 2196,-774.725 2169,-774.725"/>
<text text-anchor="start" x="2175.5" y="-794.325" font-family="Arial" font-size="48.00" fill="#ff0000"> </text>
<polygon fill="#ffffff" stroke="transparent" points="2196,-774.725 2196,-837.725 2224,-837.725 2224,-774.725 2196,-774.725"/>
<polygon fill="none" stroke="#ffffff" points="2196,-774.725 2196,-837.725 2224,-837.725 2224,-774.725 2196,-774.725"/>
<text text-anchor="start" x="2203" y="-794.325" font-family="Arial" font-size="48.00" fill="#ff0000"> </text>
<polygon fill="#add8e6" stroke="transparent" points="1861,-711.725 1861,-774.725 2224,-774.725 2224,-711.725 1861,-711.725"/>
<polygon fill="none" stroke="#ffffff" points="1861,-711.725 1861,-774.725 2224,-774.725 2224,-711.725 1861,-711.725"/>
<text text-anchor="start" x="1866" y="-731.325" font-family="Arial" font-size="48.00" fill="#ff0000">IP: 192.168.8.30</text>
</g>
<!-- rpip10&#45;&#45;network -->
<g id="rpip10_to_network" class="edge">
<title>rpip10&#45;&#45;network</title>
<path fill="none" stroke="#ff2200" stroke-width="6" d="M1815.973,-539.8383C1812.9837,-538.7555 1809.9921,-537.7168 1807,-536.725 1734.1894,-512.59 1182.4602,-489.0289 1053.0877,-483.7978"/>
</g>
<!-- broker -->
<g id="broker" class="node">
<title>broker</title>
<ellipse fill="#add8e6" stroke="#add8e6" cx="1026" cy="-253.3625" rx="175.2251" ry="175.2251"/>
<image xlink:href="img/servers.png" width="128px" height="128px" preserveAspectRatio="xMinYMin meet" x="962" y="-317.362"/>
<polygon fill="#add8e6" stroke="transparent" points="910,-167.7523 910,-230.7523 1142,-230.7523 1142,-167.7523 910,-167.7523"/>
<polygon fill="none" stroke="#add8e6" points="910,-167.7523 910,-230.7523 1142,-230.7523 1142,-167.7523 910,-167.7523"/>
<text text-anchor="start" x="948.5" y="-188.3523" font-family="Arial" font-weight="bold" font-size="48.00" fill="#000000">Broker</text>
<polygon fill="#add8e6" stroke="transparent" points="910,-104.7523 910,-167.7523 1091,-167.7523 1091,-104.7523 910,-104.7523"/>
<polygon fill="none" stroke="#add8e6" points="910,-104.7523 910,-167.7523 1091,-167.7523 1091,-104.7523 910,-104.7523"/>
<text text-anchor="start" x="915" y="-124.3523" font-family="Arial" font-size="48.00" fill="#000000"> Active: </text>
<polygon fill="#ffffff" stroke="transparent" points="1091,-104.7523 1091,-167.7523 1142,-167.7523 1142,-104.7523 1091,-104.7523"/>
<polygon fill="none" stroke="#add8e6" points="1091,-104.7523 1091,-167.7523 1142,-167.7523 1142,-104.7523 1091,-104.7523"/>
<text text-anchor="start" x="1096" y="-125.3523" font-family="Arial" font-weight="bold" font-size="48.00" fill="#000000"> 0</text>
</g>
<!-- network&#45;&#45;broker -->
<g id="broker_to_network" class="edge">
<title>network&#45;&#45;broker</title>
<path fill="none" stroke="#ff2200" stroke-width="6" d="M1026,-464.343C1026,-455.0947 1026,-442.8976 1026,-429.0209"/>
</g>
</g>
</svg>
