<?xml version="1.0" encoding="UTF-8" standalone="no"?>
<!DOCTYPE svg PUBLIC "-//W3C//DTD SVG 1.1//EN"
 "http://www.w3.org/Graphics/SVG/1.1/DTD/svg11.dtd">
<!-- Generated by graphviz version 2.40.1 (20161225.0304)
 -->
<!-- Title: demotopo Pages: 1 -->
<svg width="1924pt" height="1603pt"
 viewBox="0.00 0.00 1924.00 1603.00" xmlns="http://www.w3.org/2000/svg" xmlns:xlink="http://www.w3.org/1999/xlink">
<g id="graph0" class="graph" transform="scale(1 1) rotate(0) translate(4 1599)">
<title>demotopo</title>
<polygon fill="#ffffff" stroke="transparent" points="-4,4 -4,-1599 1920,-1599 1920,4 -4,4"/>
<text text-anchor="middle" x="958" y="-22.8" font-family="Arial" font-size="64.00" fill="#000000">IoT Dashboard</text>
<!-- rpit5 -->
<g id="rpit5" class="node">
<title>rpit5</title>
<polygon fill="#ffffff" stroke="#ffffff" points="1916,-1424 1464,-1424 1464,-1122 1916,-1122 1916,-1424"/>
<image xlink:href="img/rpibp.svg" width="452px" height="302px" preserveAspectRatio="xMinYMin meet" x="1464" y="-1424"/>
<polygon fill="#add8e6" stroke="transparent" points="1541,-1373 1541,-1423 1724,-1423 1724,-1373 1541,-1373"/>
<polygon fill="none" stroke="#ffffff" points="1541,-1373 1541,-1423 1724,-1423 1724,-1373 1541,-1373"/>
<text text-anchor="start" x="1593" y="-1390.2" font-family="Arial" font-weight="bold" font-size="36.00" fill="#ff0000">rpit5</text>
<polygon fill="#ffffff" stroke="transparent" points="1724,-1373 1724,-1423 1840,-1423 1840,-1373 1724,-1373"/>
<polygon fill="none" stroke="#ffffff" points="1724,-1373 1724,-1423 1840,-1423 1840,-1373 1724,-1373"/>
<text text-anchor="start" x="1776.5" y="-1389.2" font-family="Arial" font-size="36.00" fill="#ff0000"> </text>
<polygon fill="#add8e6" stroke="transparent" points="1541,-1323 1541,-1373 1840,-1373 1840,-1323 1541,-1323"/>
<polygon fill="none" stroke="#ffffff" points="1541,-1323 1541,-1373 1840,-1373 1840,-1323 1541,-1323"/>
<text text-anchor="start" x="1546" y="-1339.2" font-family="Arial" font-size="36.00" fill="#ff0000">IP: {192.168.8.22}</text>
</g>
<!-- network -->
<g id="node10" class="node">
<title>network</title>
<polygon fill="#ff2200" stroke="transparent" points="1717,-784 1663,-784 1663,-748 1717,-748 1717,-784"/>
</g>
<!-- rpit5&#45;&#45;network -->
<g id="edge1" class="edge">
<title>rpit5&#45;&#45;network</title>
<path fill="none" stroke="#ff2200" d="M1463.8146,-1132.0802C1457.139,-1123.1716 1451.1407,-1113.814 1446,-1104 1430.4298,-1074.2755 1428.3588,-830.5441 1446,-802 1490.0103,-730.7899 1609.1012,-747.3471 1662.9323,-759.1501"/>
</g>
<!-- rpit3 -->
<g id="rpit3" class="node">
<title>rpit3</title>
<polygon fill="#ffffff" stroke="#ffffff" points="452,-1595 0,-1595 0,-1293 452,-1293 452,-1595"/>
<image xlink:href="img/rpibp.svg" width="452px" height="302px" preserveAspectRatio="xMinYMin meet" x="0" y="-1595"/>
<polygon fill="#add8e6" stroke="transparent" points="77,-1544 77,-1594 260,-1594 260,-1544 77,-1544"/>
<polygon fill="none" stroke="#ffffff" points="77,-1544 77,-1594 260,-1594 260,-1544 77,-1544"/>
<text text-anchor="start" x="129" y="-1561.2" font-family="Arial" font-weight="bold" font-size="36.00" fill="#ff0000">rpit3</text>
<polygon fill="#ffffff" stroke="transparent" points="260,-1544 260,-1594 376,-1594 376,-1544 260,-1544"/>
<polygon fill="none" stroke="#ffffff" points="260,-1544 260,-1594 376,-1594 376,-1544 260,-1544"/>
<text text-anchor="start" x="312.5" y="-1560.2" font-family="Arial" font-size="36.00" fill="#ff0000"> </text>
<polygon fill="#add8e6" stroke="transparent" points="77,-1494 77,-1544 376,-1544 376,-1494 77,-1494"/>
<polygon fill="none" stroke="#ffffff" points="77,-1494 77,-1544 376,-1544 376,-1494 77,-1494"/>
<text text-anchor="start" x="82" y="-1510.2" font-family="Arial" font-size="36.00" fill="#ff0000">IP: {192.168.8.23}</text>
</g>
<!-- rpit3&#45;&#45;network -->
<g id="edge4" class="edge">
<title>rpit3&#45;&#45;network</title>
<path fill="none" stroke="#ff2200" d="M452.0303,-1424.3255C726.4455,-1387.7699 1182.8626,-1283.8876 1428,-990 1485.0116,-921.6505 1399.148,-853.9606 1464,-793 1518.4167,-741.8486 1615.6671,-751.5088 1662.8443,-760.0691"/>
</g>
<!-- rpit4 -->
<g id="rpit4" class="node">
<title>rpit4</title>
<polygon fill="#ffffff" stroke="#ffffff" points="452,-1275 0,-1275 0,-973 452,-973 452,-1275"/>
<image xlink:href="img/rpibp.svg" width="452px" height="302px" preserveAspectRatio="xMinYMin meet" x="0" y="-1275"/>
<polygon fill="#add8e6" stroke="transparent" points="77,-1224 77,-1274 260,-1274 260,-1224 77,-1224"/>
<polygon fill="none" stroke="#ffffff" points="77,-1224 77,-1274 260,-1274 260,-1224 77,-1224"/>
<text text-anchor="start" x="129" y="-1241.2" font-family="Arial" font-weight="bold" font-size="36.00" fill="#ff0000">rpit4</text>
<polygon fill="#ffffff" stroke="transparent" points="260,-1224 260,-1274 376,-1274 376,-1224 260,-1224"/>
<polygon fill="none" stroke="#ffffff" points="260,-1224 260,-1274 376,-1274 376,-1224 260,-1224"/>
<text text-anchor="start" x="312.5" y="-1240.2" font-family="Arial" font-size="36.00" fill="#ff0000"> </text>
<polygon fill="#add8e6" stroke="transparent" points="77,-1174 77,-1224 376,-1224 376,-1174 77,-1174"/>
<polygon fill="none" stroke="#ffffff" points="77,-1174 77,-1224 376,-1224 376,-1174 77,-1174"/>
<text text-anchor="start" x="82" y="-1190.2" font-family="Arial" font-size="36.00" fill="#ff0000">IP: {192.168.8.24}</text>
</g>
<!-- rpit4&#45;&#45;network -->
<g id="edge5" class="edge">
<title>rpit4&#45;&#45;network</title>
<path fill="none" stroke="#ff2200" d="M452.1401,-1135.3741C714.8855,-1136.5686 1148.0519,-1099.8362 1428,-874 1458.6621,-849.2647 1432.3011,-816.3919 1464,-793 1523.616,-749.0069 1617.1397,-754.9729 1662.9211,-761.3154"/>
</g>
<!-- rpip5 -->
<g id="rpip5" class="node">
<title>rpip5</title>
<polygon fill="#ffffff" stroke="#ffffff" points="452,-955 0,-955 0,-653 452,-653 452,-955"/>
<image xlink:href="img/rpibp.svg" width="452px" height="302px" preserveAspectRatio="xMinYMin meet" x="0" y="-955"/>
<polygon fill="#add8e6" stroke="transparent" points="77,-904 77,-954 265,-954 265,-904 77,-904"/>
<polygon fill="none" stroke="#ffffff" points="77,-904 77,-954 265,-954 265,-904 77,-904"/>
<text text-anchor="start" x="126.5" y="-921.2" font-family="Arial" font-weight="bold" font-size="36.00" fill="#ff0000">rpip5</text>
<polygon fill="#ffffff" stroke="transparent" points="265,-904 265,-954 376,-954 376,-904 265,-904"/>
<polygon fill="none" stroke="#ffffff" points="265,-904 265,-954 376,-954 376,-904 265,-904"/>
<text text-anchor="start" x="315" y="-920.2" font-family="Arial" font-size="36.00" fill="#ff0000"> </text>
<polygon fill="#add8e6" stroke="transparent" points="77,-854 77,-904 376,-904 376,-854 77,-854"/>
<polygon fill="none" stroke="#ffffff" points="77,-854 77,-904 376,-904 376,-854 77,-854"/>
<text text-anchor="start" x="82" y="-870.2" font-family="Arial" font-size="36.00" fill="#ff0000">IP: {192.168.8.25}</text>
</g>
<!-- rpip5&#45;&#45;network -->
<g id="edge6" class="edge">
<title>rpip5&#45;&#45;network</title>
<path fill="none" stroke="#ff2200" d="M452.1851,-916.4564C464.1399,-920.1429 476.1201,-923.3697 488,-926 915.4351,-1020.6387 1033.5821,-872.9856 1464,-793 1535.0955,-779.7881 1620.033,-771.6681 1662.6929,-768.1114"/>
</g>
<!-- rpip6 -->
<g id="rpip6" class="node">
<title>rpip6</title>
<polygon fill="#ffffff" stroke="#ffffff" points="940,-917 488,-917 488,-615 940,-615 940,-917"/>
<image xlink:href="img/rpibp.svg" width="452px" height="302px" preserveAspectRatio="xMinYMin meet" x="488" y="-917"/>
<polygon fill="#add8e6" stroke="transparent" points="565,-866 565,-916 753,-916 753,-866 565,-866"/>
<polygon fill="none" stroke="#ffffff" points="565,-866 565,-916 753,-916 753,-866 565,-866"/>
<text text-anchor="start" x="614.5" y="-883.2" font-family="Arial" font-weight="bold" font-size="36.00" fill="#ff0000">rpip6</text>
<polygon fill="#ffffff" stroke="transparent" points="753,-866 753,-916 864,-916 864,-866 753,-866"/>
<polygon fill="none" stroke="#ffffff" points="753,-866 753,-916 864,-916 864,-866 753,-866"/>
<text text-anchor="start" x="803" y="-882.2" font-family="Arial" font-size="36.00" fill="#ff0000"> </text>
<polygon fill="#add8e6" stroke="transparent" points="565,-816 565,-866 864,-866 864,-816 565,-816"/>
<polygon fill="none" stroke="#ffffff" points="565,-816 565,-866 864,-866 864,-816 565,-816"/>
<text text-anchor="start" x="570" y="-832.2" font-family="Arial" font-size="36.00" fill="#ff0000">IP: {192.168.8.26}</text>
</g>
<!-- rpip6&#45;&#45;network -->
<g id="edge7" class="edge">
<title>rpip6&#45;&#45;network</title>
<path fill="none" stroke="#ff2200" d="M940.0601,-766C1186.6915,-766 1560.1781,-766 1662.9871,-766"/>
</g>
<!-- rpip7 -->
<g id="rpip7" class="node">
<title>rpip7</title>
<polygon fill="#ffffff" stroke="#ffffff" points="940,-597 488,-597 488,-295 940,-295 940,-597"/>
<image xlink:href="img/rpibp.svg" width="452px" height="302px" preserveAspectRatio="xMinYMin meet" x="488" y="-597"/>
<polygon fill="#add8e6" stroke="transparent" points="565,-546 565,-596 753,-596 753,-546 565,-546"/>
<polygon fill="none" stroke="#ffffff" points="565,-546 565,-596 753,-596 753,-546 565,-546"/>
<text text-anchor="start" x="614.5" y="-563.2" font-family="Arial" font-weight="bold" font-size="36.00" fill="#ff0000">rpip7</text>
<polygon fill="#ffffff" stroke="transparent" points="753,-546 753,-596 864,-596 864,-546 753,-546"/>
<polygon fill="none" stroke="#ffffff" points="753,-546 753,-596 864,-596 864,-546 753,-546"/>
<text text-anchor="start" x="803" y="-562.2" font-family="Arial" font-size="36.00" fill="#ff0000"> </text>
<polygon fill="#add8e6" stroke="transparent" points="565,-496 565,-546 864,-546 864,-496 565,-496"/>
<polygon fill="none" stroke="#ffffff" points="565,-496 565,-546 864,-546 864,-496 565,-496"/>
<text text-anchor="start" x="570" y="-512.2" font-family="Arial" font-size="36.00" fill="#ff0000">IP: {192.168.8.27}</text>
</g>
<!-- rpip7&#45;&#45;network -->
<g id="edge8" class="edge">
<title>rpip7&#45;&#45;network</title>
<path fill="none" stroke="#ff2200" d="M933.068,-597.173C935.4459,-600.0813 937.7586,-603.0239 940,-606 969.1733,-644.7366 937.6048,-679.3788 976,-709 1031.2594,-751.6316 1538.6984,-763.327 1662.7393,-765.5597"/>
</g>
<!-- rpip8 -->
<g id="rpip8" class="node">
<title>rpip8</title>
<polygon fill="#ffffff" stroke="#ffffff" points="1428,-700 976,-700 976,-398 1428,-398 1428,-700"/>
<image xlink:href="img/rpibp.svg" width="452px" height="302px" preserveAspectRatio="xMinYMin meet" x="976" y="-700"/>
<polygon fill="#add8e6" stroke="transparent" points="1053,-649 1053,-699 1241,-699 1241,-649 1053,-649"/>
<polygon fill="none" stroke="#ffffff" points="1053,-649 1053,-699 1241,-699 1241,-649 1053,-649"/>
<text text-anchor="start" x="1102.5" y="-666.2" font-family="Arial" font-weight="bold" font-size="36.00" fill="#ff0000">rpip8</text>
<polygon fill="#ffffff" stroke="transparent" points="1241,-649 1241,-699 1352,-699 1352,-649 1241,-649"/>
<polygon fill="none" stroke="#ffffff" points="1241,-649 1241,-699 1352,-699 1352,-649 1241,-649"/>
<text text-anchor="start" x="1291" y="-665.2" font-family="Arial" font-size="36.00" fill="#ff0000"> </text>
<polygon fill="#add8e6" stroke="transparent" points="1053,-599 1053,-649 1352,-649 1352,-599 1053,-599"/>
<polygon fill="none" stroke="#ffffff" points="1053,-599 1053,-649 1352,-649 1352,-599 1053,-599"/>
<text text-anchor="start" x="1058" y="-615.2" font-family="Arial" font-size="36.00" fill="#ff0000">IP: {192.168.8.28}</text>
</g>
<!-- rpip8&#45;&#45;network -->
<g id="edge9" class="edge">
<title>rpip8&#45;&#45;network</title>
<path fill="none" stroke="#ff2200" d="M1408.5777,-700.0294C1439.2829,-722.2141 1461.6129,-738.0654 1464,-739 1531.8878,-765.579 1619.309,-767.871 1662.8463,-767.078"/>
</g>
<!-- rpip9 -->
<g id="rpip9" class="node">
<title>rpip9</title>
<polygon fill="#ffffff" stroke="#ffffff" points="1428,-380 976,-380 976,-78 1428,-78 1428,-380"/>
<image xlink:href="img/rpibp.svg" width="452px" height="302px" preserveAspectRatio="xMinYMin meet" x="976" y="-380"/>
<polygon fill="#add8e6" stroke="transparent" points="1053,-329 1053,-379 1241,-379 1241,-329 1053,-329"/>
<polygon fill="none" stroke="#ffffff" points="1053,-329 1053,-379 1241,-379 1241,-329 1053,-329"/>
<text text-anchor="start" x="1102.5" y="-346.2" font-family="Arial" font-weight="bold" font-size="36.00" fill="#ff0000">rpip9</text>
<polygon fill="#ffffff" stroke="transparent" points="1241,-329 1241,-379 1352,-379 1352,-329 1241,-329"/>
<polygon fill="none" stroke="#ffffff" points="1241,-329 1241,-379 1352,-379 1352,-329 1241,-329"/>
<text text-anchor="start" x="1291" y="-345.2" font-family="Arial" font-size="36.00" fill="#ff0000"> </text>
<polygon fill="#add8e6" stroke="transparent" points="1053,-279 1053,-329 1352,-329 1352,-279 1053,-279"/>
<polygon fill="none" stroke="#ffffff" points="1053,-279 1053,-329 1352,-329 1352,-279 1053,-279"/>
<text text-anchor="start" x="1058" y="-295.2" font-family="Arial" font-size="36.00" fill="#ff0000">IP: {192.168.8.29}</text>
</g>
<!-- rpip9&#45;&#45;network -->
<g id="edge10" class="edge">
<title>rpip9&#45;&#45;network</title>
<path fill="none" stroke="#ff2200" d="M1422.4875,-380.0976C1424.4027,-383.0229 1426.2422,-385.9904 1428,-389 1467.4336,-456.5157 1409.1681,-683.2609 1464,-739 1516.5128,-792.3816 1615.118,-781.528 1662.8031,-772.2871"/>
</g>
<!-- rpip10 -->
<g id="rpip10" class="node">
<title>rpip10</title>
<polygon fill="#ffffff" stroke="#ffffff" points="1916,-1104 1464,-1104 1464,-802 1916,-802 1916,-1104"/>
<image xlink:href="img/rpibp.svg" width="452px" height="302px" preserveAspectRatio="xMinYMin meet" x="1464" y="-1104"/>
<polygon fill="#add8e6" stroke="transparent" points="1541,-1053 1541,-1103 1739,-1103 1739,-1053 1541,-1053"/>
<polygon fill="none" stroke="#ffffff" points="1541,-1053 1541,-1103 1739,-1103 1739,-1053 1541,-1053"/>
<text text-anchor="start" x="1585.5" y="-1070.2" font-family="Arial" font-weight="bold" font-size="36.00" fill="#ff0000">rpip10</text>
<polygon fill="#ffffff" stroke="transparent" points="1739,-1053 1739,-1103 1840,-1103 1840,-1053 1739,-1053"/>
<polygon fill="none" stroke="#ffffff" points="1739,-1053 1739,-1103 1840,-1103 1840,-1053 1739,-1053"/>
<text text-anchor="start" x="1784" y="-1069.2" font-family="Arial" font-size="36.00" fill="#ff0000"> </text>
<polygon fill="#add8e6" stroke="transparent" points="1541,-1003 1541,-1053 1840,-1053 1840,-1003 1541,-1003"/>
<polygon fill="none" stroke="#ffffff" points="1541,-1003 1541,-1053 1840,-1053 1840,-1003 1541,-1003"/>
<text text-anchor="start" x="1546" y="-1019.2" font-family="Arial" font-size="36.00" fill="#ff0000">IP: {192.168.8.30}</text>
</g>
<!-- rpip10&#45;&#45;network -->
<g id="edge11" class="edge">
<title>rpip10&#45;&#45;network</title>
<path fill="none" stroke="#ff2200" d="M1690,-801.7288C1690,-795.9064 1690,-790.0841 1690,-784.2617"/>
</g>
<!-- server -->
<g id="node11" class="node">
<title>server</title>
<polygon fill="#add8e6" stroke="#add8e6" points="1751.5,-730 1628.5,-730 1628.5,-632 1751.5,-632 1751.5,-730"/>
<image xlink:href="img/servers.png" width="123px" height="98px" preserveAspectRatio="xMinYMin meet" x="1628.5" y="-730"/>
<text text-anchor="middle" x="1690" y="-643.2" font-family="Arial" font-size="36.00" fill="#000000">Broker</text>
</g>
<!-- network&#45;&#45;server -->
<g id="edge3" class="edge">
<title>network&#45;&#45;server</title>
<path fill="none" stroke="#ff2200" d="M1690,-747.7902C1690,-741.907 1690,-736.0238 1690,-730.1406"/>
</g>
<!-- cloud -->
<g id="node12" class="node">
<title>cloud</title>
<polygon fill="#ffffff" stroke="#ffffff" points="1795.5,-614 1584.5,-614 1584.5,-566 1795.5,-566 1795.5,-614"/>
<image xlink:href="img/cloud.png" width="64px" height="48px" preserveAspectRatio="xMinYMin meet" x="1658" y="-614"/>
<text text-anchor="middle" x="1690" y="-577.2" font-family="Arial" font-size="36.00" fill="#000000">The Internet</text>
</g>
<!-- server&#45;&#45;cloud -->
<g id="edge2" class="edge">
<title>server&#45;&#45;cloud</title>
<path fill="none" stroke="#0022ff" d="M1690,-631.9231C1690,-626.006 1690,-620.0889 1690,-614.1719"/>
</g>
</g>
</svg>
