<?xml version="1.0" encoding="UTF-8" standalone="no"?>
<!DOCTYPE svg PUBLIC "-//W3C//DTD SVG 1.1//EN"
 "http://www.w3.org/Graphics/SVG/1.1/DTD/svg11.dtd">
<!-- Generated by graphviz version 2.40.1 (20161225.0304)
 -->
<!-- Title: demotopo Pages: 1 -->
<svg width="2276pt" height="1473pt"
 viewBox="0.00 0.00 2276.00 1473.23" xmlns="http://www.w3.org/2000/svg" xmlns:xlink="http://www.w3.org/1999/xlink">
<g id="graph0" class="graph" transform="scale(1 1) rotate(0) translate(4 1469.2275)">
<title>demotopo</title>
<polygon fill="#ffffff" stroke="transparent" points="-4,4 -4,-1469.2275 2272,-1469.2275 2272,4 -4,4"/>
<text text-anchor="middle" x="1134" y="-22.8" font-family="Arial" font-size="64.00" fill="#000000">IoT Dashboard</text>
<!-- rpit5 -->
<g id="rpit5" class="node">
<title>rpit5</title>
<polygon fill="#ffffff" stroke="#ffffff" points="452,-789.2275 0,-789.2275 0,-487.2275 452,-487.2275 452,-789.2275"/>
<image xlink:href="img/rpibp.svg" width="452px" height="302px" preserveAspectRatio="xMinYMin meet" x="0" y="-789.227"/>
<polygon fill="#add8e6" stroke="transparent" points="74,-734.2275 74,-788.2275 203,-788.2275 203,-734.2275 74,-734.2275"/>
<polygon fill="none" stroke="#ffffff" points="74,-734.2275 74,-788.2275 203,-788.2275 203,-734.2275 74,-734.2275"/>
<text text-anchor="start" x="95" y="-752.2275" font-family="Arial" font-weight="bold" font-size="40.00" fill="#ff0000">rpit5</text>
<polygon fill="#ffffff" stroke="transparent" points="203,-734.2275 203,-788.2275 318,-788.2275 318,-734.2275 203,-734.2275"/>
<polygon fill="none" stroke="#000000" points="203,-734.2275 203,-788.2275 318,-788.2275 318,-734.2275 203,-734.2275"/>
<text text-anchor="start" x="208" y="-751.2275" font-family="Arial" font-size="40.00" fill="#ff0000">        </text>
<polygon fill="#ffffff" stroke="transparent" points="318,-734.2275 318,-788.2275 348,-788.2275 348,-734.2275 318,-734.2275"/>
<polygon fill="none" stroke="#ffffff" points="318,-734.2275 318,-788.2275 348,-788.2275 348,-734.2275 318,-734.2275"/>
<text text-anchor="start" x="327" y="-751.2275" font-family="Arial" font-size="40.00" fill="#ff0000"> </text>
<polygon fill="#ffffff" stroke="transparent" points="348,-734.2275 348,-788.2275 378,-788.2275 378,-734.2275 348,-734.2275"/>
<polygon fill="none" stroke="#ffffff" points="348,-734.2275 348,-788.2275 378,-788.2275 378,-734.2275 348,-734.2275"/>
<text text-anchor="start" x="357" y="-751.2275" font-family="Arial" font-size="40.00" fill="#ff0000"> </text>
<polygon fill="#add8e6" stroke="transparent" points="74,-680.2275 74,-734.2275 378,-734.2275 378,-680.2275 74,-680.2275"/>
<polygon fill="none" stroke="#ffffff" points="74,-680.2275 74,-734.2275 378,-734.2275 378,-680.2275 74,-680.2275"/>
<text text-anchor="start" x="79" y="-697.2275" font-family="Arial" font-size="40.00" fill="#ff0000">IP: 192.168.8.22</text>
</g>
<!-- network -->
<g id="node10" class="node">
<title>network</title>
<polygon fill="#ff2200" stroke="#ff2200" points="1053,-451.2275 999,-451.2275 999,-415.2275 1053,-415.2275 1053,-451.2275"/>
</g>
<!-- rpit5&#45;&#45;network -->
<g id="rpit5_to_network" class="edge">
<title>rpit5&#45;&#45;network</title>
<path fill="none" stroke="#ff2200" stroke-width="6" d="M452.0237,-492.305C456.6799,-490.5134 461.3411,-488.8174 466,-487.2275 566.6429,-452.8829 901.2329,-437.8955 998.971,-434.1836"/>
</g>
<!-- rpit3 -->
<g id="rpit3" class="node">
<title>rpit3</title>
<polygon fill="#ffffff" stroke="#ffffff" points="490,-1465.2275 38,-1465.2275 38,-1163.2275 490,-1163.2275 490,-1465.2275"/>
<image xlink:href="img/rpibp.svg" width="452px" height="302px" preserveAspectRatio="xMinYMin meet" x="38" y="-1465.23"/>
<polygon fill="#add8e6" stroke="transparent" points="112,-1410.2275 112,-1464.2275 241,-1464.2275 241,-1410.2275 112,-1410.2275"/>
<polygon fill="none" stroke="#ffffff" points="112,-1410.2275 112,-1464.2275 241,-1464.2275 241,-1410.2275 112,-1410.2275"/>
<text text-anchor="start" x="133" y="-1428.2275" font-family="Arial" font-weight="bold" font-size="40.00" fill="#ff0000">rpit3</text>
<polygon fill="#ffffff" stroke="transparent" points="241,-1410.2275 241,-1464.2275 356,-1464.2275 356,-1410.2275 241,-1410.2275"/>
<polygon fill="none" stroke="#000000" points="241,-1410.2275 241,-1464.2275 356,-1464.2275 356,-1410.2275 241,-1410.2275"/>
<text text-anchor="start" x="246" y="-1427.2275" font-family="Arial" font-size="40.00" fill="#ff0000">        </text>
<polygon fill="#ffffff" stroke="transparent" points="356,-1410.2275 356,-1464.2275 386,-1464.2275 386,-1410.2275 356,-1410.2275"/>
<polygon fill="none" stroke="#ffffff" points="356,-1410.2275 356,-1464.2275 386,-1464.2275 386,-1410.2275 356,-1410.2275"/>
<text text-anchor="start" x="365" y="-1427.2275" font-family="Arial" font-size="40.00" fill="#ff0000"> </text>
<polygon fill="#ffffff" stroke="transparent" points="386,-1410.2275 386,-1464.2275 416,-1464.2275 416,-1410.2275 386,-1410.2275"/>
<polygon fill="none" stroke="#ffffff" points="386,-1410.2275 386,-1464.2275 416,-1464.2275 416,-1410.2275 386,-1410.2275"/>
<text text-anchor="start" x="395" y="-1427.2275" font-family="Arial" font-size="40.00" fill="#ff0000"> </text>
<polygon fill="#add8e6" stroke="transparent" points="112,-1356.2275 112,-1410.2275 416,-1410.2275 416,-1356.2275 112,-1356.2275"/>
<polygon fill="none" stroke="#ffffff" points="112,-1356.2275 112,-1410.2275 416,-1410.2275 416,-1356.2275 112,-1356.2275"/>
<text text-anchor="start" x="117" y="-1373.2275" font-family="Arial" font-size="40.00" fill="#ff0000">IP: 192.168.8.23</text>
</g>
<!-- rpit3&#45;&#45;network -->
<g id="rpit3_to_network" class="edge">
<title>rpit3&#45;&#45;network</title>
<path fill="none" stroke="#ff2200" stroke-width="6" d="M319.8641,-1163.1418C402.225,-948.7233 559.0957,-572.6146 676,-487.2275 727.5733,-449.5583 925.9403,-437.4652 998.8833,-434.2448"/>
</g>
<!-- rpit4 -->
<g id="rpit4" class="node">
<title>rpit4</title>
<polygon fill="#ffffff" stroke="#ffffff" points="960,-1465.2275 508,-1465.2275 508,-1163.2275 960,-1163.2275 960,-1465.2275"/>
<image xlink:href="img/rpibp.svg" width="452px" height="302px" preserveAspectRatio="xMinYMin meet" x="508" y="-1465.23"/>
<polygon fill="#add8e6" stroke="transparent" points="582,-1410.2275 582,-1464.2275 711,-1464.2275 711,-1410.2275 582,-1410.2275"/>
<polygon fill="none" stroke="#ffffff" points="582,-1410.2275 582,-1464.2275 711,-1464.2275 711,-1410.2275 582,-1410.2275"/>
<text text-anchor="start" x="603" y="-1428.2275" font-family="Arial" font-weight="bold" font-size="40.00" fill="#ff0000">rpit4</text>
<polygon fill="#ffffff" stroke="transparent" points="711,-1410.2275 711,-1464.2275 826,-1464.2275 826,-1410.2275 711,-1410.2275"/>
<polygon fill="none" stroke="#000000" points="711,-1410.2275 711,-1464.2275 826,-1464.2275 826,-1410.2275 711,-1410.2275"/>
<text text-anchor="start" x="716" y="-1427.2275" font-family="Arial" font-size="40.00" fill="#ff0000">        </text>
<polygon fill="#ffffff" stroke="transparent" points="826,-1410.2275 826,-1464.2275 856,-1464.2275 856,-1410.2275 826,-1410.2275"/>
<polygon fill="none" stroke="#ffffff" points="826,-1410.2275 826,-1464.2275 856,-1464.2275 856,-1410.2275 826,-1410.2275"/>
<text text-anchor="start" x="835" y="-1427.2275" font-family="Arial" font-size="40.00" fill="#ff0000"> </text>
<polygon fill="#ffffff" stroke="transparent" points="856,-1410.2275 856,-1464.2275 886,-1464.2275 886,-1410.2275 856,-1410.2275"/>
<polygon fill="none" stroke="#ffffff" points="856,-1410.2275 856,-1464.2275 886,-1464.2275 886,-1410.2275 856,-1410.2275"/>
<text text-anchor="start" x="865" y="-1427.2275" font-family="Arial" font-size="40.00" fill="#ff0000"> </text>
<polygon fill="#add8e6" stroke="transparent" points="582,-1356.2275 582,-1410.2275 886,-1410.2275 886,-1356.2275 582,-1356.2275"/>
<polygon fill="none" stroke="#ffffff" points="582,-1356.2275 582,-1410.2275 886,-1410.2275 886,-1356.2275 582,-1356.2275"/>
<text text-anchor="start" x="587" y="-1373.2275" font-family="Arial" font-size="40.00" fill="#ff0000">IP: 192.168.8.24</text>
</g>
<!-- rpit4&#45;&#45;network -->
<g id="rpit4_to_network" class="edge">
<title>rpit4&#45;&#45;network</title>
<path fill="none" stroke="#ff2200" stroke-width="6" d="M697.5564,-1163.1899C663.0587,-979.8608 637.946,-672.3341 801,-487.2275 826.9558,-457.7612 944.487,-441.8076 998.5892,-435.9127"/>
</g>
<!-- rpip5 -->
<g id="rpip5" class="node">
<title>rpip5</title>
<polygon fill="#ffffff" stroke="#ffffff" points="1430,-1465.2275 978,-1465.2275 978,-1163.2275 1430,-1163.2275 1430,-1465.2275"/>
<image xlink:href="img/rpibp.svg" width="452px" height="302px" preserveAspectRatio="xMinYMin meet" x="978" y="-1465.23"/>
<polygon fill="#add8e6" stroke="transparent" points="1052,-1410.2275 1052,-1464.2275 1186,-1464.2275 1186,-1410.2275 1052,-1410.2275"/>
<polygon fill="none" stroke="#ffffff" points="1052,-1410.2275 1052,-1464.2275 1186,-1464.2275 1186,-1410.2275 1052,-1410.2275"/>
<text text-anchor="start" x="1070" y="-1428.2275" font-family="Arial" font-weight="bold" font-size="40.00" fill="#ff0000">rpip5</text>
<polygon fill="#ffffff" stroke="transparent" points="1186,-1410.2275 1186,-1464.2275 1298,-1464.2275 1298,-1410.2275 1186,-1410.2275"/>
<polygon fill="none" stroke="#000000" points="1186,-1410.2275 1186,-1464.2275 1298,-1464.2275 1298,-1410.2275 1186,-1410.2275"/>
<text text-anchor="start" x="1191" y="-1427.2275" font-family="Arial" font-size="40.00" fill="#ff0000">        </text>
<polygon fill="#ffffff" stroke="transparent" points="1298,-1410.2275 1298,-1464.2275 1327,-1464.2275 1327,-1410.2275 1298,-1410.2275"/>
<polygon fill="none" stroke="#ffffff" points="1298,-1410.2275 1298,-1464.2275 1327,-1464.2275 1327,-1410.2275 1298,-1410.2275"/>
<text text-anchor="start" x="1306.5" y="-1427.2275" font-family="Arial" font-size="40.00" fill="#ff0000"> </text>
<polygon fill="#ffffff" stroke="transparent" points="1327,-1410.2275 1327,-1464.2275 1356,-1464.2275 1356,-1410.2275 1327,-1410.2275"/>
<polygon fill="none" stroke="#ffffff" points="1327,-1410.2275 1327,-1464.2275 1356,-1464.2275 1356,-1410.2275 1327,-1410.2275"/>
<text text-anchor="start" x="1335.5" y="-1427.2275" font-family="Arial" font-size="40.00" fill="#ff0000"> </text>
<polygon fill="#add8e6" stroke="transparent" points="1052,-1356.2275 1052,-1410.2275 1356,-1410.2275 1356,-1356.2275 1052,-1356.2275"/>
<polygon fill="none" stroke="#ffffff" points="1052,-1356.2275 1052,-1410.2275 1356,-1410.2275 1356,-1356.2275 1052,-1356.2275"/>
<text text-anchor="start" x="1057" y="-1373.2275" font-family="Arial" font-size="40.00" fill="#ff0000">IP: 192.168.8.25</text>
</g>
<!-- rpip5&#45;&#45;network -->
<g id="rpip5_to_network" class="edge">
<title>rpip5&#45;&#45;network</title>
<path fill="none" stroke="#ff2200" stroke-width="6" d="M977.7706,-1166.8908C974.8452,-1165.6343 971.921,-1164.4123 969,-1163.2275 894.2057,-1132.8897 842.1036,-1189.7014 791,-1127.2275 748.5084,-1075.2817 773.0979,-889.9068 791,-825.2275 835.3433,-665.0172 964.4914,-504.499 1009.9455,-451.4716"/>
</g>
<!-- rpip6 -->
<g id="rpip6" class="node">
<title>rpip6</title>
<polygon fill="#ffffff" stroke="#ffffff" points="1252,-1127.2275 800,-1127.2275 800,-825.2275 1252,-825.2275 1252,-1127.2275"/>
<image xlink:href="img/rpibp.svg" width="452px" height="302px" preserveAspectRatio="xMinYMin meet" x="800" y="-1127.23"/>
<polygon fill="#add8e6" stroke="transparent" points="874,-1072.2275 874,-1126.2275 1008,-1126.2275 1008,-1072.2275 874,-1072.2275"/>
<polygon fill="none" stroke="#ffffff" points="874,-1072.2275 874,-1126.2275 1008,-1126.2275 1008,-1072.2275 874,-1072.2275"/>
<text text-anchor="start" x="892" y="-1090.2275" font-family="Arial" font-weight="bold" font-size="40.00" fill="#ff0000">rpip6</text>
<polygon fill="#ffffff" stroke="transparent" points="1008,-1072.2275 1008,-1126.2275 1120,-1126.2275 1120,-1072.2275 1008,-1072.2275"/>
<polygon fill="none" stroke="#000000" points="1008,-1072.2275 1008,-1126.2275 1120,-1126.2275 1120,-1072.2275 1008,-1072.2275"/>
<text text-anchor="start" x="1013" y="-1089.2275" font-family="Arial" font-size="40.00" fill="#ff0000">        </text>
<polygon fill="#ffffff" stroke="transparent" points="1120,-1072.2275 1120,-1126.2275 1149,-1126.2275 1149,-1072.2275 1120,-1072.2275"/>
<polygon fill="none" stroke="#ffffff" points="1120,-1072.2275 1120,-1126.2275 1149,-1126.2275 1149,-1072.2275 1120,-1072.2275"/>
<text text-anchor="start" x="1128.5" y="-1089.2275" font-family="Arial" font-size="40.00" fill="#ff0000"> </text>
<polygon fill="#ffffff" stroke="transparent" points="1149,-1072.2275 1149,-1126.2275 1178,-1126.2275 1178,-1072.2275 1149,-1072.2275"/>
<polygon fill="none" stroke="#ffffff" points="1149,-1072.2275 1149,-1126.2275 1178,-1126.2275 1178,-1072.2275 1149,-1072.2275"/>
<text text-anchor="start" x="1157.5" y="-1089.2275" font-family="Arial" font-size="40.00" fill="#ff0000"> </text>
<polygon fill="#add8e6" stroke="transparent" points="874,-1018.2275 874,-1072.2275 1178,-1072.2275 1178,-1018.2275 874,-1018.2275"/>
<polygon fill="none" stroke="#ffffff" points="874,-1018.2275 874,-1072.2275 1178,-1072.2275 1178,-1018.2275 874,-1018.2275"/>
<text text-anchor="start" x="879" y="-1035.2275" font-family="Arial" font-size="40.00" fill="#ff0000">IP: 192.168.8.26</text>
</g>
<!-- rpip6&#45;&#45;network -->
<g id="rpip6_to_network" class="edge">
<title>rpip6&#45;&#45;network</title>
<path fill="none" stroke="#ff2200" stroke-width="6" d="M1026,-824.9717C1026,-691.2898 1026,-508.8678 1026,-451.3571"/>
</g>
<!-- rpip7 -->
<g id="rpip7" class="node">
<title>rpip7</title>
<polygon fill="#ffffff" stroke="#ffffff" points="1722,-1127.2275 1270,-1127.2275 1270,-825.2275 1722,-825.2275 1722,-1127.2275"/>
<image xlink:href="img/rpibp.svg" width="452px" height="302px" preserveAspectRatio="xMinYMin meet" x="1270" y="-1127.23"/>
<polygon fill="#add8e6" stroke="transparent" points="1344,-1072.2275 1344,-1126.2275 1478,-1126.2275 1478,-1072.2275 1344,-1072.2275"/>
<polygon fill="none" stroke="#ffffff" points="1344,-1072.2275 1344,-1126.2275 1478,-1126.2275 1478,-1072.2275 1344,-1072.2275"/>
<text text-anchor="start" x="1362" y="-1090.2275" font-family="Arial" font-weight="bold" font-size="40.00" fill="#ff0000">rpip7</text>
<polygon fill="#ffffff" stroke="transparent" points="1478,-1072.2275 1478,-1126.2275 1590,-1126.2275 1590,-1072.2275 1478,-1072.2275"/>
<polygon fill="none" stroke="#000000" points="1478,-1072.2275 1478,-1126.2275 1590,-1126.2275 1590,-1072.2275 1478,-1072.2275"/>
<text text-anchor="start" x="1483" y="-1089.2275" font-family="Arial" font-size="40.00" fill="#ff0000">        </text>
<polygon fill="#ffffff" stroke="transparent" points="1590,-1072.2275 1590,-1126.2275 1619,-1126.2275 1619,-1072.2275 1590,-1072.2275"/>
<polygon fill="none" stroke="#ffffff" points="1590,-1072.2275 1590,-1126.2275 1619,-1126.2275 1619,-1072.2275 1590,-1072.2275"/>
<text text-anchor="start" x="1598.5" y="-1089.2275" font-family="Arial" font-size="40.00" fill="#ff0000"> </text>
<polygon fill="#ffffff" stroke="transparent" points="1619,-1072.2275 1619,-1126.2275 1648,-1126.2275 1648,-1072.2275 1619,-1072.2275"/>
<polygon fill="none" stroke="#ffffff" points="1619,-1072.2275 1619,-1126.2275 1648,-1126.2275 1648,-1072.2275 1619,-1072.2275"/>
<text text-anchor="start" x="1627.5" y="-1089.2275" font-family="Arial" font-size="40.00" fill="#ff0000"> </text>
<polygon fill="#add8e6" stroke="transparent" points="1344,-1018.2275 1344,-1072.2275 1648,-1072.2275 1648,-1018.2275 1344,-1018.2275"/>
<polygon fill="none" stroke="#ffffff" points="1344,-1018.2275 1344,-1072.2275 1648,-1072.2275 1648,-1018.2275 1344,-1018.2275"/>
<text text-anchor="start" x="1349" y="-1035.2275" font-family="Arial" font-size="40.00" fill="#ff0000">IP: 192.168.8.27</text>
</g>
<!-- rpip7&#45;&#45;network -->
<g id="rpip7_to_network" class="edge">
<title>rpip7&#45;&#45;network</title>
<path fill="none" stroke="#ff2200" stroke-width="6" d="M1337.3342,-825.0863C1325.8646,-813.1339 1314.6371,-801.0948 1304,-789.2275 1193.8235,-666.3089 1076.8741,-504.8348 1038.7827,-451.3187"/>
</g>
<!-- rpip8 -->
<g id="rpip8" class="node">
<title>rpip8</title>
<polygon fill="#ffffff" stroke="#ffffff" points="2192,-1127.2275 1740,-1127.2275 1740,-825.2275 2192,-825.2275 2192,-1127.2275"/>
<image xlink:href="img/rpibp.svg" width="452px" height="302px" preserveAspectRatio="xMinYMin meet" x="1740" y="-1127.23"/>
<polygon fill="#add8e6" stroke="transparent" points="1814,-1072.2275 1814,-1126.2275 1948,-1126.2275 1948,-1072.2275 1814,-1072.2275"/>
<polygon fill="none" stroke="#ffffff" points="1814,-1072.2275 1814,-1126.2275 1948,-1126.2275 1948,-1072.2275 1814,-1072.2275"/>
<text text-anchor="start" x="1832" y="-1090.2275" font-family="Arial" font-weight="bold" font-size="40.00" fill="#ff0000">rpip8</text>
<polygon fill="#ffffff" stroke="transparent" points="1948,-1072.2275 1948,-1126.2275 2060,-1126.2275 2060,-1072.2275 1948,-1072.2275"/>
<polygon fill="none" stroke="#000000" points="1948,-1072.2275 1948,-1126.2275 2060,-1126.2275 2060,-1072.2275 1948,-1072.2275"/>
<text text-anchor="start" x="1953" y="-1089.2275" font-family="Arial" font-size="40.00" fill="#ff0000">        </text>
<polygon fill="#ffffff" stroke="transparent" points="2060,-1072.2275 2060,-1126.2275 2089,-1126.2275 2089,-1072.2275 2060,-1072.2275"/>
<polygon fill="none" stroke="#ffffff" points="2060,-1072.2275 2060,-1126.2275 2089,-1126.2275 2089,-1072.2275 2060,-1072.2275"/>
<text text-anchor="start" x="2068.5" y="-1089.2275" font-family="Arial" font-size="40.00" fill="#ff0000"> </text>
<polygon fill="#ffffff" stroke="transparent" points="2089,-1072.2275 2089,-1126.2275 2118,-1126.2275 2118,-1072.2275 2089,-1072.2275"/>
<polygon fill="none" stroke="#ffffff" points="2089,-1072.2275 2089,-1126.2275 2118,-1126.2275 2118,-1072.2275 2089,-1072.2275"/>
<text text-anchor="start" x="2097.5" y="-1089.2275" font-family="Arial" font-size="40.00" fill="#ff0000"> </text>
<polygon fill="#add8e6" stroke="transparent" points="1814,-1018.2275 1814,-1072.2275 2118,-1072.2275 2118,-1018.2275 1814,-1018.2275"/>
<polygon fill="none" stroke="#ffffff" points="1814,-1018.2275 1814,-1072.2275 2118,-1072.2275 2118,-1018.2275 1814,-1018.2275"/>
<text text-anchor="start" x="1819" y="-1035.2275" font-family="Arial" font-size="40.00" fill="#ff0000">IP: 192.168.8.28</text>
</g>
<!-- rpip8&#45;&#45;network -->
<g id="rpip8_to_network" class="edge">
<title>rpip8&#45;&#45;network</title>
<path fill="none" stroke="#ff2200" stroke-width="6" d="M1739.9413,-828.4348C1736.962,-827.3224 1733.9809,-826.2523 1731,-825.2275 1647.8557,-796.6444 1408.7968,-839.9738 1337,-789.2275 1216.3398,-703.9443 1308.9066,-584.8585 1198,-487.2275 1156.4183,-450.6231 1090.113,-438.8214 1053.15,-435.0234"/>
</g>
<!-- rpip9 -->
<g id="rpip9" class="node">
<title>rpip9</title>
<polygon fill="#ffffff" stroke="#ffffff" points="1798,-789.2275 1346,-789.2275 1346,-487.2275 1798,-487.2275 1798,-789.2275"/>
<image xlink:href="img/rpibp.svg" width="452px" height="302px" preserveAspectRatio="xMinYMin meet" x="1346" y="-789.227"/>
<polygon fill="#add8e6" stroke="transparent" points="1420,-734.2275 1420,-788.2275 1554,-788.2275 1554,-734.2275 1420,-734.2275"/>
<polygon fill="none" stroke="#ffffff" points="1420,-734.2275 1420,-788.2275 1554,-788.2275 1554,-734.2275 1420,-734.2275"/>
<text text-anchor="start" x="1438" y="-752.2275" font-family="Arial" font-weight="bold" font-size="40.00" fill="#ff0000">rpip9</text>
<polygon fill="#ffffff" stroke="transparent" points="1554,-734.2275 1554,-788.2275 1666,-788.2275 1666,-734.2275 1554,-734.2275"/>
<polygon fill="none" stroke="#000000" points="1554,-734.2275 1554,-788.2275 1666,-788.2275 1666,-734.2275 1554,-734.2275"/>
<text text-anchor="start" x="1559" y="-751.2275" font-family="Arial" font-size="40.00" fill="#ff0000">        </text>
<polygon fill="#ffffff" stroke="transparent" points="1666,-734.2275 1666,-788.2275 1695,-788.2275 1695,-734.2275 1666,-734.2275"/>
<polygon fill="none" stroke="#ffffff" points="1666,-734.2275 1666,-788.2275 1695,-788.2275 1695,-734.2275 1666,-734.2275"/>
<text text-anchor="start" x="1674.5" y="-751.2275" font-family="Arial" font-size="40.00" fill="#ff0000"> </text>
<polygon fill="#ffffff" stroke="transparent" points="1695,-734.2275 1695,-788.2275 1724,-788.2275 1724,-734.2275 1695,-734.2275"/>
<polygon fill="none" stroke="#ffffff" points="1695,-734.2275 1695,-788.2275 1724,-788.2275 1724,-734.2275 1695,-734.2275"/>
<text text-anchor="start" x="1703.5" y="-751.2275" font-family="Arial" font-size="40.00" fill="#ff0000"> </text>
<polygon fill="#add8e6" stroke="transparent" points="1420,-680.2275 1420,-734.2275 1724,-734.2275 1724,-680.2275 1420,-680.2275"/>
<polygon fill="none" stroke="#ffffff" points="1420,-680.2275 1420,-734.2275 1724,-734.2275 1724,-680.2275 1420,-680.2275"/>
<text text-anchor="start" x="1425" y="-697.2275" font-family="Arial" font-size="40.00" fill="#ff0000">IP: 192.168.8.29</text>
</g>
<!-- rpip9&#45;&#45;network -->
<g id="rpip9_to_network" class="edge">
<title>rpip9&#45;&#45;network</title>
<path fill="none" stroke="#ff2200" stroke-width="6" d="M1345.7934,-492.8083C1341.1933,-490.8626 1336.5929,-488.9991 1332,-487.2275 1233.8534,-449.3709 1107.6811,-437.8548 1053.1247,-434.5161"/>
</g>
<!-- rpip10 -->
<g id="rpip10" class="node">
<title>rpip10</title>
<polygon fill="#ffffff" stroke="#ffffff" points="2268,-789.2275 1816,-789.2275 1816,-487.2275 2268,-487.2275 2268,-789.2275"/>
<image xlink:href="img/rpibp.svg" width="452px" height="302px" preserveAspectRatio="xMinYMin meet" x="1816" y="-789.227"/>
<polygon fill="#add8e6" stroke="transparent" points="1890,-734.2275 1890,-788.2275 2036,-788.2275 2036,-734.2275 1890,-734.2275"/>
<polygon fill="none" stroke="#ffffff" points="1890,-734.2275 1890,-788.2275 2036,-788.2275 2036,-734.2275 1890,-734.2275"/>
<text text-anchor="start" x="1902.5" y="-752.2275" font-family="Arial" font-weight="bold" font-size="40.00" fill="#ff0000">rpip10</text>
<polygon fill="#ffffff" stroke="transparent" points="2036,-734.2275 2036,-788.2275 2142,-788.2275 2142,-734.2275 2036,-734.2275"/>
<polygon fill="none" stroke="#000000" points="2036,-734.2275 2036,-788.2275 2142,-788.2275 2142,-734.2275 2036,-734.2275"/>
<text text-anchor="start" x="2041" y="-751.2275" font-family="Arial" font-size="40.00" fill="#ff0000">        </text>
<polygon fill="#ffffff" stroke="transparent" points="2142,-734.2275 2142,-788.2275 2168,-788.2275 2168,-734.2275 2142,-734.2275"/>
<polygon fill="none" stroke="#ffffff" points="2142,-734.2275 2142,-788.2275 2168,-788.2275 2168,-734.2275 2142,-734.2275"/>
<text text-anchor="start" x="2149" y="-751.2275" font-family="Arial" font-size="40.00" fill="#ff0000"> </text>
<polygon fill="#ffffff" stroke="transparent" points="2168,-734.2275 2168,-788.2275 2194,-788.2275 2194,-734.2275 2168,-734.2275"/>
<polygon fill="none" stroke="#ffffff" points="2168,-734.2275 2168,-788.2275 2194,-788.2275 2194,-734.2275 2168,-734.2275"/>
<text text-anchor="start" x="2175" y="-751.2275" font-family="Arial" font-size="40.00" fill="#ff0000"> </text>
<polygon fill="#add8e6" stroke="transparent" points="1890,-680.2275 1890,-734.2275 2194,-734.2275 2194,-680.2275 1890,-680.2275"/>
<polygon fill="none" stroke="#ffffff" points="1890,-680.2275 1890,-734.2275 2194,-734.2275 2194,-680.2275 1890,-680.2275"/>
<text text-anchor="start" x="1895" y="-697.2275" font-family="Arial" font-size="40.00" fill="#ff0000">IP: 192.168.8.30</text>
</g>
<!-- rpip10&#45;&#45;network -->
<g id="rpip10_to_network" class="edge">
<title>rpip10&#45;&#45;network</title>
<path fill="none" stroke="#ff2200" stroke-width="6" d="M1815.973,-490.3408C1812.9837,-489.2581 1809.9921,-488.2193 1807,-487.2275 1734.1894,-463.0926 1182.4602,-439.5315 1053.0877,-434.3003"/>
</g>
<!-- broker -->
<g id="broker" class="node">
<title>broker</title>
<ellipse fill="#add8e6" stroke="#add8e6" cx="1026" cy="-228.6137" rx="150.7276" ry="150.7276"/>
<image xlink:href="img/servers.png" width="128px" height="128px" preserveAspectRatio="xMinYMin meet" x="962" y="-292.614"/>
<polygon fill="#add8e6" stroke="transparent" points="928,-155.0244 928,-209.0244 1125,-209.0244 1125,-155.0244 928,-155.0244"/>
<polygon fill="none" stroke="#add8e6" points="928,-155.0244 928,-209.0244 1125,-209.0244 1125,-155.0244 928,-155.0244"/>
<text text-anchor="start" x="962" y="-173.0244" font-family="Arial" font-weight="bold" font-size="40.00" fill="#000000">Broker</text>
<polygon fill="#add8e6" stroke="transparent" points="928,-101.0244 928,-155.0244 1081,-155.0244 1081,-101.0244 928,-101.0244"/>
<polygon fill="none" stroke="#add8e6" points="928,-101.0244 928,-155.0244 1081,-155.0244 1081,-101.0244 928,-101.0244"/>
<text text-anchor="start" x="933" y="-118.0244" font-family="Arial" font-size="40.00" fill="#000000"> Active: </text>
<polygon fill="#ffffff" stroke="transparent" points="1081,-101.0244 1081,-155.0244 1125,-155.0244 1125,-101.0244 1081,-101.0244"/>
<polygon fill="none" stroke="#add8e6" points="1081,-101.0244 1081,-155.0244 1125,-155.0244 1125,-101.0244 1081,-101.0244"/>
<text text-anchor="start" x="1086" y="-119.0244" font-family="Arial" font-weight="bold" font-size="40.00" fill="#000000"> 0</text>
</g>
<!-- network&#45;&#45;broker -->
<g id="edge1" class="edge">
<title>network&#45;&#45;broker</title>
<path fill="none" stroke="#ff2200" stroke-width="6" d="M1026,-415.0694C1026,-405.68 1026,-393.2566 1026,-379.2669"/>
</g>
</g>
</svg>
